<svg width="137" height="254" viewBox="0 0 137 254" fill="none" xmlns="http://www.w3.org/2000/svg">
<g clip-path="url(#clip0_861_3417)">
<g filter="url(#filter0_g_861_3417)">
<mask id="path-1-inside-1_861_3417" fill="white">
<path fill-rule="evenodd" clip-rule="evenodd" d="M100.083 177.998L100.03 177.672C100.002 177.497 99.9741 177.323 99.9463 177.15C99.9917 177.432 100.037 177.714 100.083 177.998Z"/>
</mask>
<path fill-rule="evenodd" clip-rule="evenodd" d="M100.083 177.998L100.03 177.672C100.002 177.497 99.9741 177.323 99.9463 177.15C99.9917 177.432 100.037 177.714 100.083 177.998Z" fill="#00BFFF"/>
<path d="M100.083 177.998L99.0954 178.156L101.07 177.839L100.083 177.998ZM100.03 177.672L101.018 177.513L101.018 177.513L100.03 177.672ZM99.9463 177.15L100.934 176.991L98.959 177.31L99.9463 177.15ZM100.083 177.998L101.07 177.839L101.018 177.513L100.03 177.672L99.0429 177.83L99.0954 178.156L100.083 177.998ZM100.03 177.672L101.018 177.513C100.989 177.338 100.961 177.164 100.934 176.991L99.9463 177.15L98.959 177.31C98.9869 177.482 99.0149 177.656 99.043 177.831L100.03 177.672ZM99.9463 177.15L98.959 177.31C99.0044 177.591 99.0496 177.872 99.0954 178.156L100.083 177.998L101.07 177.839C101.024 177.555 100.979 177.273 100.934 176.991L99.9463 177.15Z" fill="#00BFFF" mask="url(#path-1-inside-1_861_3417)"/>
<path d="M21.8653 17.8772C45.6266 9.43905 72.7757 10.341 96.126 20.0051C116.018 28.2385 130.28 46.3442 136.131 66.3647C139.496 77.878 138.207 89.2717 134.909 100.249L134.909 100.25L126.731 127.482C125.209 132.551 124.091 141.119 123.647 149.953C123.204 158.79 123.433 167.96 124.635 174.237L124.655 174.344L124.718 174.432C125.001 174.834 125.04 175.102 125.025 175.226C125.014 175.323 124.977 175.331 124.957 175.336C124.91 175.346 124.762 175.345 124.555 175.17C124.353 174.998 124.119 174.673 123.952 174.124L122.98 174.351C123.184 175.563 123.384 176.806 123.589 178.077L123.625 178.304C124.816 185.706 126.144 193.968 128.818 201.307C131.425 208.464 135.334 214.804 141.705 218.628C139.141 221.802 136.266 223.477 132.745 224.989L131.999 225.304C105.074 236.473 76.7658 241.612 47.2247 238.975C43.598 238.651 40.9801 238.215 38.4776 236.625C41.1264 224.731 42.2977 212.959 41.073 200.266L41.0185 199.699L40.4637 199.826C37.7894 200.438 35.1754 201.098 32.637 201.74C24.7208 203.739 17.593 205.535 11.5273 205.195C8.50858 205.026 5.77477 204.327 3.35288 202.873C0.932768 201.42 -1.20737 199.195 -3.01392 195.923C-9.09526 184.914 -12.778 172.952 -16.4246 160.663C-17.0796 158.454 -18.2506 157.186 -19.6545 156.434C-21.0258 155.699 -22.5907 155.475 -23.9703 155.272C-24.7672 155.156 -25.4987 155.047 -26.152 154.866C-26.8018 154.685 -27.3369 154.442 -27.7481 154.077C-28.537 153.379 -29.0352 152.08 -28.6292 149.308L-24.2814 119.622L-24.274 119.571L-24.2767 119.519C-24.5664 114.724 -25.9744 110.131 -27.3585 105.606C-28.9573 100.378 -30.5249 95.2398 -30.4459 89.8299C-29.0912 75.1435 -24.7951 61.7497 -18.8251 48.1024C-7.19669 35.7462 5.31505 23.7537 21.8653 17.8772ZM81.0353 28.1057C81.006 34.8855 80.8899 45.2648 80.6386 54.367C80.5129 58.9187 80.3541 63.1478 80.1547 66.4459C80.055 68.0951 79.9451 69.5069 79.8255 70.6081C79.704 71.727 79.5764 72.4784 79.4537 72.8379C78.7264 74.9693 77.1845 81.4067 75.6334 88.4007C74.0792 95.4088 72.5056 103.024 71.7133 107.536C71.1473 110.76 70.2808 113.451 69.5797 115.628C69.2724 116.582 68.9935 117.448 68.7897 118.209C68.5868 118.967 68.4492 119.657 68.4382 120.255C68.4272 120.856 68.5434 121.42 68.9061 121.87C69.2692 122.32 69.8163 122.579 70.5002 122.705C70.8791 122.775 71.5873 122.983 72.5863 123.308C73.5745 123.629 74.8157 124.053 76.2423 124.541C81.4001 126.302 88.9695 128.889 95.5726 130.36C98.8702 131.094 101.961 131.559 104.405 131.493C105.626 131.459 106.717 131.292 107.599 130.94C108.489 130.585 109.194 130.031 109.582 129.215C110.26 127.79 111.365 125.706 112.694 123.202C115.192 118.492 118.462 112.329 121.058 106.433C122.356 103.485 123.49 100.593 124.276 97.977C125.059 95.3697 125.509 92.9957 125.407 91.0956C125.16 86.5023 124.64 78.5712 122.944 70.6644C121.254 62.7822 118.373 54.8102 113.329 50.2361C110.234 47.4299 107.308 44.6294 104.636 42.0722C101.736 39.2964 99.1283 36.8009 96.9397 34.908C95.8451 33.9613 94.8469 33.1579 93.9624 32.5425C93.0849 31.9321 92.2876 31.4847 91.5996 31.2782C88.7687 30.4288 83.8407 28.5041 81.7227 27.6446L81.0385 27.367L81.0353 28.1057ZM-1.48234 106.842C-6.26744 107.544 -9.58634 111.971 -8.88788 116.736C-8.62866 118.503 -7.8512 120.07 -6.73256 121.303C-5.41477 122.756 -3.62149 123.748 -1.63769 124.069C-0.770595 124.209 0.132339 124.221 1.04664 124.087C5.83181 123.385 9.14981 118.957 8.45106 114.193C8.12564 111.975 6.98608 110.075 5.37891 108.751C4.05977 107.664 2.42433 106.963 0.66269 106.79C-0.0370697 106.722 -0.756127 106.736 -1.48234 106.842ZM53.7814 22.5356C51.2257 39.8716 49.5008 53.7897 47.781 67.6721C46.0551 81.6047 44.3336 95.5017 41.7798 112.789L41.7278 113.141L42.0441 113.306L48.504 116.657L48.6525 116.734L48.8173 116.707L55.6753 115.558L56.0443 115.496L56.0896 115.125C57.6646 102.121 59.3311 91.1332 60.9145 80.6972C63.6378 62.7484 66.1143 46.4296 67.4405 24.3186L67.4609 23.98L67.1546 23.8364C65.1306 22.8843 63.4028 22.2799 61.4139 22.0035C59.4318 21.7282 57.216 21.7818 54.2205 22.111L53.8369 22.1534L53.7814 22.5356ZM25.5978 27.9767L19.137 32.9177L18.964 33.0506L18.9436 33.2678L12.5062 100.426L12.4753 100.741L12.7469 100.903L19.1403 104.723L19.2344 104.779L19.3437 104.791L25.5645 105.448L26.0548 105.5L26.1132 105.01L30.9554 64.4742L30.9585 64.4422L32.9147 29.0484L32.9414 28.5707L32.4646 28.5232L25.9511 27.8755L25.7548 27.856L25.5978 27.9767ZM2.35625 45.613L-7.24958 49.0974L-7.47632 49.18L-7.55336 49.4084L-15.1492 72.0767L-15.1747 72.1515L-15.1751 72.2295L-15.4212 95.7357L-15.4272 96.3209L-1.74055 94.3137L-1.69209 93.9374L1.38404 70.0162L1.38592 70.0021L1.3867 69.9872L3.02546 46.1179L3.07785 45.3512L2.35625 45.613Z" fill="#00BFFF" stroke="#00BFFF"/>
</g>
</g>
<defs>
<filter id="filter0_g_861_3417" x="-36.1482" y="6.40498" width="183.8" height="238.95" filterUnits="userSpaceOnUse" color-interpolation-filters="sRGB">
<feFlood flood-opacity="0" result="BackgroundImageFix"/>
<feBlend mode="normal" in="SourceGraphic" in2="BackgroundImageFix" result="shape"/>
<feTurbulence type="fractalNoise" baseFrequency="0.016077170148491859 0.011574073694646358" numOctaves="3" seed="9234" />
<feDisplacementMap in="shape" scale="10.399999618530273" xChannelSelector="R" yChannelSelector="G" result="displacedImage" width="100%" height="100%" />
<feMerge result="effect1_texture_861_3417">
<feMergeNode in="displacedImage"/>
</feMerge>
</filter>
<clipPath id="clip0_861_3417">
<rect width="177" height="230" fill="white" transform="translate(-71.7505 25.6835) rotate(-8.34332)"/>
</clipPath>
</defs>
</svg>
