<svg width="229" height="260" viewBox="0 0 229 260" fill="none" xmlns="http://www.w3.org/2000/svg">
<path fill-rule="evenodd" clip-rule="evenodd" d="M61.9756 22.986L62.1882 23.5074C62.6295 23.5556 63.0716 23.6316 63.5134 23.7364C66.4459 24.4321 68.7074 26.2387 70.3582 28.1647C78.1708 37.2798 85.7389 47.0897 90.4833 58.8635L90.7072 59.4254L90.7456 59.5264C90.7827 59.6277 90.816 59.7302 90.8459 59.8338L94.5115 72.5466C96.1464 78.2172 98.4083 83.4988 101.009 89.2774L106.498 101.471L109.298 106.194L117.372 118.128L117.666 118.57C120.652 123.137 122.084 127.785 122.99 132.746L123.042 133.041C124.071 139.135 122.491 145.48 116.876 150.081L116.602 150.302C115.009 151.562 113.249 152.338 111.77 152.893C112.727 155.858 113.439 159.279 112.925 162.763C112.5 165.639 111.316 168.108 109.411 170.06C109.296 170.178 108.969 170.094 108.56 169.988C107.72 169.772 106.535 169.467 106.138 170.652C105.212 169.666 104.698 169.735 103.985 169.832C103.438 169.905 102.774 169.995 101.719 169.636C98.0567 168.392 94.1923 168.332 91.0258 168.762C90.9098 168.742 90.5775 168.675 89.9474 168.456C89.408 168.268 88.8158 168.028 88.0962 167.725C88.0532 167.707 88.009 167.688 87.9636 167.669C87.8645 167.627 87.76 167.583 87.6513 167.537C87.0785 167.293 86.3903 167.001 85.7712 166.759C78.2758 163.826 71.09 164.598 68.3289 171.031C67.5531 172.838 67.8774 173.015 68.6842 173.457C69.2193 173.75 69.9667 174.159 70.7462 175.237C71.0062 175.597 71.2367 175.926 71.4491 176.229C72.7667 178.11 73.3909 179.001 76.0905 180.112C78.5711 181.133 81.7472 182.434 84.9686 183.376C88.1106 184.295 92.0944 185.12 96.0001 184.612L96.0288 184.608C96.4832 184.55 96.9409 184.506 97.5383 184.448C97.72 184.431 97.9146 184.412 98.1261 184.392C98.4173 184.363 98.7817 184.285 99.1612 184.203C99.8719 184.05 100.636 183.886 101.071 184.016C101.569 183.93 102.115 184.43 102.679 184.945C103.333 185.543 104.011 186.162 104.663 185.915C106.253 189.741 105.65 191.239 104.799 193.353C104.663 193.692 104.52 194.047 104.379 194.429C104.063 195.285 103.566 196.438 103.239 197.196L103.238 197.199C103.104 197.509 102.999 197.753 102.947 197.882C102.941 197.898 102.934 197.914 102.929 197.929C102.925 197.939 102.921 197.948 102.917 197.958C103.154 198.723 103.396 199.492 103.639 200.266C105.061 204.795 106.536 209.494 107.456 214.64C109.226 224.534 104.169 234.7 93.6602 238.882C78.6162 244.868 61.3718 246.304 45.5282 242.46C35.6635 240.066 26.5124 236.964 17.4932 232.569C17.4904 232.568 17.4869 232.566 17.4837 232.565L17.4797 232.563C17.4747 232.561 17.4698 232.558 17.4649 232.556C12.316 230.045 8.0567 226.595 4.24535 223.506L4.23207 223.496C3.76145 223.114 3.29761 222.739 2.83973 222.371C0.175146 220.231 -1.31495 217.243 -1.42836 214.178L-32.8983 40.1415L61.9756 22.986ZM52.2963 89.9467C55.9125 89.3096 60.0028 89.1888 63.6228 90.35C67.4877 91.5898 70.8416 94.3503 71.9408 98.9945L72.0065 99.2873C72.6519 102.311 72.1821 105.241 70.364 107.731C68.6344 110.099 66.0884 111.501 63.7731 112.396C59.5693 114.02 54.0611 114.699 49.5908 115.249C49.2625 115.29 48.9397 115.329 48.6235 115.369L48.5492 115.378C47.9367 115.456 47.2492 115.56 46.5061 115.673C43.7205 116.097 40.1545 116.639 36.8352 116.33C31.4242 115.825 27.3944 111.784 27.0363 106.887C26.7077 102.399 28.8877 97.9085 33.7024 95.5734C39.6613 92.6825 46.0829 91.0415 52.2963 89.9467Z" fill="#00BFFF"/>
<path d="M150.899 13.5573C152.903 12.3461 155.588 11.6091 158.21 11.7262C160.929 11.8478 164.356 12.987 166.202 16.3966L174.801 32.2786C177.936 38.0688 179.69 44.2825 180.937 50.3991C181.781 54.5356 182.47 59.1027 183.157 63.3898C186.374 62.756 189.868 62.5781 193.398 63.5894C199.835 65.4335 202.862 71.4106 202.65 76.7832L202.228 87.3973C202.171 88.834 201.97 90.2426 201.854 91.2321C201.736 92.2402 201.669 93.0522 201.7 93.8703L201.707 94.0341C201.833 96.3867 201.451 99.3956 201.357 100.987C201.264 102.57 201.333 103.636 201.55 104.415C204.386 107.53 205.515 111.762 205.978 115.415C206.474 119.331 206.308 123.46 205.943 126.913L205.868 127.594C205.258 132.861 202.294 137.532 197.1 139.805C197.71 145.722 198.226 151.714 197.686 158.062C197.954 159.583 197.901 160.963 197.798 162.085C197.74 162.727 197.654 163.38 197.593 163.876C197.544 164.278 197.505 164.62 197.479 164.936L197.457 165.243C196.405 183.546 192.889 197.458 181.514 213.169L181.515 213.169C176.974 219.44 171.098 224.758 164.287 228.73L163.962 228.919C161.756 230.185 158.249 232.218 154.496 232.895L115.025 240.011L118.024 235.926C115.733 234.241 114.205 231.765 113.694 229.246C112.542 223.554 116.312 217.627 122.865 216.417L123.179 216.363L123.492 216.313L126.961 216.19C129.889 215.663 132.804 215.265 135.51 214.876C138.384 214.464 141.049 214.061 143.588 213.514C148.633 212.428 152.819 210.843 156.321 207.893L160.09 204.719C165.633 198.344 169.812 191.145 172.182 183.155C175.21 172.946 175.21 162.465 175.518 150.943L175.524 150.646C175.546 149.163 175.444 147.687 175.295 146.074C175.144 144.426 174.926 142.479 174.823 140.532C174.69 138 174.417 135.619 173.977 133.134C172.802 126.507 177.202 121.005 183.39 119.629C183.175 119.396 182.882 119.076 182.597 118.726C181.841 117.795 181.03 116.535 180.603 114.79C178.804 107.445 178.938 100.261 179.335 93.3443L179.732 86.4031L176.82 87.007C172.891 87.8216 169.559 86.489 167.419 85.1912L167.216 85.0657C163.224 82.5617 162.794 78.1708 162.524 76.3818L162.524 76.3811C160.939 65.8633 160.096 56.4061 156.946 47.1089L156.856 46.8492C155.915 44.1713 154.517 41.6748 152.946 38.6574L147.091 27.4187L146.979 27.1978C144.682 22.5426 145.745 16.6729 150.899 13.5573Z" fill="#00BFFF"/>
<path d="M119.919 79.6352C124.573 77.6625 131.225 75.4179 137.47 74.5513C140.678 74.1061 144.11 73.9754 147.224 74.6378C150.405 75.3142 153.675 76.9306 155.598 80.2549L155.731 80.4902C157.076 82.9362 157.604 85.8756 156.983 88.6993C156.315 91.7347 154.299 94.5906 150.829 96.1303C145.564 98.4661 140.131 99.2324 135.36 99.7915L133.359 100.022C131.401 100.249 130.344 100.476 128.036 100.777C126.122 101.025 123.925 101.222 121.648 101.021C118.601 100.753 116.125 99.3878 114.452 97.3165C112.867 95.355 112.2 93.0205 112.044 90.9172C111.866 88.5128 112.467 86.1701 113.902 84.1429C115.302 82.1652 117.295 80.7663 119.475 79.8251L119.919 79.6352Z" fill="#00BFFF"/>
<path d="M139.066 178.151C141.956 176.417 144.771 172.967 148.927 172.517C153.494 172.022 157.972 172.993 161.073 175.827L161.22 175.964C162.725 177.389 163.323 179.266 163.544 180.637C163.77 182.039 163.771 183.971 162.878 185.79C161.617 188.357 159.32 190.176 157.39 191.426C156.433 192.046 155.469 192.587 154.69 193.017C153.847 193.483 153.287 193.784 152.744 194.104L152.718 194.12C149.143 196.239 144.87 197.201 141.375 197.72C137.792 198.252 134.085 198.444 131.188 198.589C127.526 198.773 123.737 198.277 120.7 196.762C117.532 195.181 115.518 192.637 115.375 189.402C115.07 182.481 124.32 179.179 133.003 178.602C133.919 178.542 134.982 178.506 135.723 178.474C136.567 178.438 137.256 178.399 137.87 178.337C138.588 178.264 138.943 178.182 139.066 178.151Z" fill="#00BFFF"/>
</svg>
