<svg width="223" height="227" viewBox="0 0 223 227" fill="none" xmlns="http://www.w3.org/2000/svg">
<g filter="url(#filter0_g_861_3304)">
<path d="M211.197 80.303C201.32 69.6166 189.445 60.9336 174.898 53.7612C147.459 40.2343 116.9 36.1973 86.2498 42.0059L70.6981 8.6894C70.017 7.23247 68.8256 6.10419 67.3852 5.55776C66.3579 5.1702 65.268 5.0974 64.2387 5.33966C63.8244 5.43718 63.4214 5.58323 63.0348 5.78399L51.4297 11.7351C48.6555 13.1564 47.5464 16.7324 48.9509 19.7388L62.3722 48.4745C45.5309 54.531 30.1454 64.2478 17.5591 76.8292C3.24184 91.1426 -7.53947 109.26 -13.6177 129.23C-16.2243 137.794 -17.6632 142.509 -12.8546 149.412C-11.831 150.887 -10.5465 152.454 -8.84426 154.505C-7.97608 155.552 -7.06827 156.579 -6.15164 157.556C-4.70695 159.093 -2.67378 159.69 -0.809293 159.251C-0.161901 159.099 0.466642 158.823 1.04071 158.417C3.27068 156.846 4.09328 153.78 3.0019 151.102L2.1049 148.902C2.39654 146.353 4.59192 138.712 6.1871 134.008L25.8721 175.917C26.5288 177.313 27.6529 178.403 29.0165 178.971L36.4963 182.069C37.5828 182.52 38.7325 182.6 39.804 182.348C40.8754 182.096 41.8887 181.495 42.6635 180.592C44.2049 178.795 44.5319 176.15 43.4891 173.911L15.495 113.725C16.4156 111.989 17.3309 110.45 18.3894 108.88L54.8618 186.901C55.7282 188.754 57.4015 190.043 59.3135 190.329L65.8738 191.306C66.5572 191.408 67.2332 191.377 67.8774 191.225C69.1883 190.917 70.3616 190.11 71.1576 188.92C72.3445 187.141 72.5005 184.784 71.5633 182.777L30.2142 94.282L34.8975 89.7514L81.7943 189.973C82.8477 192.228 85.0742 193.603 87.4039 193.443L93.2427 193.038C93.5317 193.018 93.8117 192.974 94.0901 192.908C95.6018 192.552 96.905 191.543 97.6706 190.093C98.5758 188.38 98.6173 186.278 97.7793 184.473L87.4706 162.272L94.9181 164.072L106.328 188.773C107.517 191.343 110.201 192.746 112.782 192.146C112.782 192.146 118.295 190.863 118.298 190.862C119.962 190.471 121.346 189.296 122.065 187.663C122.786 186.026 122.759 184.108 121.991 182.445L112.779 162.462L118.608 160.146L145.526 217.629C146.747 220.236 149.458 221.563 151.976 220.97C152.374 220.876 152.768 220.736 153.15 220.544L158.065 218.07C160.85 216.668 161.98 213.105 160.597 210.09L146.901 180.216C166.579 172.324 184.322 154.157 193.73 140.658C197.556 135.17 200.013 129.367 202.612 123.223L202.717 122.975C203.434 121.288 204.17 119.552 204.932 117.84L210.973 112.66C211.595 112.126 212.1 111.455 212.448 110.685L215.535 103.928C216.411 102.006 216.997 100.024 217.27 98.0499C218.145 91.8105 215.988 85.5164 211.189 80.3268L211.197 80.303ZM138.396 86.7423C151.525 106.981 154.882 138.038 135.883 156.787C134.102 154.315 133.129 151.544 132.167 148.635C143.208 134.35 144.95 115.027 136.665 97.925C129.046 82.203 113.382 72.3006 96.5079 72.4265L92.4295 63.7635C112.626 63.9643 128.876 72.0604 138.396 86.7423ZM165.885 100.96C162.83 89.5936 158.173 79.6617 151.971 71.2498C167.388 76.4722 181.565 85.0489 192.709 96.0553C190.551 103.387 187.448 110.685 182.891 119.236C177.921 127.208 172.843 133.924 167.449 139.599C170.004 127.289 169.486 114.36 165.884 100.957L165.885 100.96ZM62.089 93.6186C60.7152 95.8958 59.8813 98.0715 59.007 100.352C59.007 100.352 58.9224 100.573 58.8942 100.642L48.5036 79.1948C50.2385 77.8864 51.9287 76.852 53.6734 76.0205L62.0898 93.6221L62.089 93.6186ZM69.1408 69.047C70.9356 68.094 72.7615 67.3899 74.9722 66.7964L79.6877 76.7438C77.9552 77.6418 76.2697 78.5946 74.3091 80.0037L69.1368 69.0443L69.1408 69.047Z" fill="#00BFFF"/>
</g>
<defs>
<filter id="filter0_g_861_3304" x="-21.2225" y="1.23978e-05" width="243.883" height="226.31" filterUnits="userSpaceOnUse" color-interpolation-filters="sRGB">
<feFlood flood-opacity="0" result="BackgroundImageFix"/>
<feBlend mode="normal" in="SourceGraphic" in2="BackgroundImageFix" result="shape"/>
<feTurbulence type="fractalNoise" baseFrequency="0.016077170148491859 0.011574073694646358" numOctaves="3" seed="9234" />
<feDisplacementMap in="shape" scale="10.399999618530273" xChannelSelector="R" yChannelSelector="G" result="displacedImage" width="100%" height="100%" />
<feMerge result="effect1_texture_861_3304">
<feMergeNode in="displacedImage"/>
</feMerge>
</filter>
</defs>
</svg>
