<svg width="221" height="341" viewBox="0 0 221 341" fill="none" xmlns="http://www.w3.org/2000/svg">
<path fill-rule="evenodd" clip-rule="evenodd" d="M100.612 259.172C113.586 252.538 120.459 238.295 121.789 223.826C122.612 214.648 121.069 205.795 117.783 197.843C122.496 196.267 126.822 194.914 131.184 193.693C132.761 195.279 134.36 196.861 135.987 198.428C138.09 200.531 140.232 202.799 142.435 205.13L142.438 205.134L142.442 205.138C146.538 209.473 150.845 214.032 155.49 218.169L155.495 218.173L155.5 218.177L155.633 218.295L155.75 218.399L155.949 218.577L156.059 218.675C156.057 218.72 156.055 218.766 156.053 218.812L156.047 218.938C156.038 219.117 156.029 219.297 156.02 219.476C154.838 241.136 145.285 252.678 132.558 268.054C131.778 268.996 130.987 269.952 130.184 270.927C124.528 277.903 119.716 282.394 111.936 287.171C90.7541 298.829 67.9338 301.729 45.2752 289.123C39.4802 285.887 34.3552 283.501 29.7141 281.341C15.8395 274.882 6.29005 270.436 -3.90546 251.299C-19.2752 222.211 -19.7728 192.243 -2.93689 163.685C1.693 155.933 6.89349 149.373 12.513 143.922C12.8589 145.401 13.1535 146.895 13.3869 148.421L13.3889 148.434L13.3912 148.448C14.347 154.539 16.2201 159.89 18.0475 164.749C18.3743 165.617 18.6972 166.465 19.0147 167.298C20.5262 171.266 21.913 174.906 22.9922 178.933C23.441 180.608 25.3564 186.237 27.3679 191.951C22.1673 199.993 18.7111 209.171 19.4289 218.703C20.5932 236.013 27.6029 253.087 43.7203 261.764C61.3101 271.017 78.4314 267.126 95.9692 260.996C96.7789 260.672 97.5352 260.378 98.2914 260.084C99.0472 259.79 99.8031 259.497 100.612 259.172Z" fill="#00BFFF"/>
<path fill-rule="evenodd" clip-rule="evenodd" d="M73.9344 201.929L73.929 201.932C73.9252 201.934 73.9214 201.936 73.9176 201.938C73.9152 201.939 73.9128 201.941 73.9104 201.942C73.908 201.943 73.9056 201.945 73.9032 201.946L73.9104 201.942L73.9176 201.938C73.9214 201.936 73.9252 201.934 73.929 201.932C73.9305 201.931 73.9329 201.93 73.9344 201.929Z" fill="white"/>
<path d="M36.2347 64.5287C36.4435 60.4377 33.9375 56.7627 30.596 54.4052C26.3496 51.4236 22.0336 49.8288 17.091 51.8397C9.78159 54.6825 5.81362 60.9231 7.83241 68.4117C8.87661 72.364 11.0346 76.7323 14.933 78.6045C19.3186 80.754 24.47 81.4474 28.8557 78.7432C33.5894 75.7616 35.0513 71.0465 36.0259 65.9155C36.0955 65.4301 36.1651 65.0141 36.2347 64.5287ZM43.2657 58.9816C44.1706 61.3391 44.5883 63.1419 44.6579 65.7074C44.5187 72.5027 42.0126 78.4658 35.7474 82.2101C29.343 86.0238 27.7419 89.144 19.5971 88.8666C10.3385 88.52 2.95947 84.429 -1.63502 76.3163C-5.74221 68.9664 -5.53337 60.3683 -1.35657 53.0878C1.14952 48.7887 5.32633 44.5591 9.92082 42.4789C19.5275 38.2492 25.9319 39.9827 34.3551 45.4605C39.785 48.9968 41.1077 53.2264 43.2657 58.9816Z" fill="#00BFFF"/>
<path d="M37.5278 65.624C37.5278 74.572 30.2 81.8257 21.1608 81.8257C12.1216 81.8257 4.79387 74.572 4.79387 65.624C4.79387 56.6761 12.1216 49.4224 21.1608 49.4224C30.2 49.4224 37.5278 56.6761 37.5278 65.624Z" fill="#00BFFF"/>
<path d="M14.3857 126.014C15.915 130.137 17.436 134.237 18.6604 138.522C19.4694 141.353 20.1488 144.264 20.6156 147.315C21.5906 153.527 23.6764 158.997 25.8108 164.594C27.3286 168.574 28.871 172.619 30.0558 177.041C30.3201 178.027 31.3318 181.067 32.6298 184.83C35.5331 193.246 39.8686 205.276 40.4747 206.016C42.0841 207.564 44.889 207.999 48.0968 207.877C49.7599 208.368 51.4598 207.893 53.2041 207.329C55.639 206.939 58.074 206.409 60.2209 205.938C64.9411 204.836 69.6206 203.582 73.9026 201.946L73.9107 201.942L73.9179 201.938L73.9292 201.932L73.9339 201.929L73.9381 201.927L73.951 201.92L73.9548 201.918L73.9586 201.916L73.9663 201.912C77.7622 200.942 81.5497 199.94 85.313 198.848C88.9531 197.872 92.5067 197.038 96.0291 196.212C102.109 194.785 108.096 193.38 114.275 191.307L114.532 191.22C121.179 188.981 127.111 187.152 133.399 185.523C135.942 188.122 138.504 190.701 141.125 193.223C143.562 195.66 145.853 198.089 148.124 200.496L148.608 201.009C151.023 203.569 153.425 206.103 155.968 208.597C157.378 209.981 158.831 211.352 160.354 212.708C167.191 218.777 172.712 224.042 178.812 230.654C182.767 234.839 188.648 227.91 192.654 223.189L192.821 222.992C193.209 222.535 193.578 222.101 193.925 221.703C194.552 221.017 195.208 220.348 195.852 219.69C196.29 219.244 196.722 218.803 197.135 218.367C200.029 215.31 202.018 212.455 198.649 209.275C195.51 206.137 192.289 203.33 189.087 200.54C184.332 196.396 179.618 192.289 175.281 187.188C171.754 183.061 167.921 179.766 163.999 176.395C161.209 173.997 158.375 171.561 155.573 168.759C153.551 166.737 136.669 151.647 135.642 151.132C135.476 151.068 135.308 151.015 135.138 150.972C134.139 150.514 132.908 150.451 131.353 150.92C131.025 151.007 130.699 151.096 130.374 151.187C126.59 152.24 122.976 153.466 119.399 154.709C118.888 154.887 118.377 155.065 117.867 155.242C111.354 157.513 104.898 159.763 97.6869 161.039C92.1509 162.036 87.1863 163.754 82.1489 165.548C81.9693 165.612 81.7897 165.676 81.61 165.74L81.4832 165.785L81.4687 165.79L81.4014 165.814L81.3051 165.848L81.2836 165.856L81.2414 165.871L81.2363 165.873L81.2045 165.884L80.9541 165.974L80.9398 165.979C80.7983 166.029 80.6567 166.08 80.5149 166.13L80.4797 166.143L80.2575 166.222C77.8082 167.093 75.3231 167.963 72.7293 168.758C72.3328 167.201 71.9288 165.646 71.5127 164.094C70.9596 162.032 70.3851 159.974 69.7782 157.926C69.2089 155.801 68.695 153.701 68.2068 151.619C69.466 151.308 70.7176 151.004 71.9649 150.701C77.5158 149.352 82.9845 148.023 88.6613 146.216C97.3619 143.433 104.691 141.318 113.448 139.273C114.218 139.086 114.832 138.794 115.315 138.42C105.355 131.59 94.2313 126.709 82.7238 124.211C80.3731 124.859 77.9693 125.449 75.4753 125.946C70.9413 126.861 66.7905 128.159 62.627 129.537C62.384 128.794 62.1319 128.048 61.8673 127.301C61.28 125.655 60.72 124.051 60.1846 122.473C57.4796 114.503 55.4036 107.219 53.6194 98.7214C52.1456 92.2315 38.5931 96.7495 29.3603 99.8275C28.3253 100.173 27.3445 100.499 26.4412 100.791C25.0421 101.216 23.6196 101.609 22.2232 101.994C14.6353 104.087 7.81291 105.97 9.62765 111.812C10.9551 116.767 12.6756 121.404 14.3857 126.014Z" fill="#00BFFF"/>
</svg>
