<svg width="187" height="263" viewBox="0 0 187 263" fill="none" xmlns="http://www.w3.org/2000/svg">
<g filter="url(#filter0_g_861_3314)">
<path d="M15.4391 76.5014C29.6146 66.1588 50.0021 58.8238 74.497 68.8459C86.7245 73.8488 94.5811 81.4035 99.1857 90.2169C103.68 98.8188 104.947 108.365 104.519 117.45L104.498 117.882C103.527 136.185 95.6965 153.466 91.6684 159.72C86.1506 168.288 85.4694 172.956 80.1991 192.464C77.2762 203.283 69.2104 208.927 60.8941 211.286C52.8037 213.58 44.1326 212.904 38.7162 210.957C35.2669 209.718 34.4994 205.784 36.4308 203.208L41.1746 196.88L41.2673 196.76C42.7679 194.855 45.3111 194.228 47.4487 194.947L47.5874 194.995L47.7882 195.066L47.797 195.069L47.806 195.072C50.3934 195.969 52.3296 196.114 53.7423 195.961C55.179 195.805 56.2692 195.319 57.1367 194.709C58.9805 193.414 59.9614 191.47 60.472 190.399C60.4747 190.393 60.4769 190.39 60.4779 190.387C60.4822 190.379 60.4855 190.372 60.4874 190.368C60.4874 190.367 60.4874 190.367 60.4873 190.367C60.4872 190.367 60.4872 190.367 60.4873 190.367L60.4873 190.367C60.4874 190.367 60.4874 190.367 60.4873 190.367L58.073 189.334C57.7602 189.2 57.6174 188.837 57.7511 188.524C57.9135 188.144 58.1286 187.633 58.3946 186.997C58.5421 186.644 58.9837 186.526 59.2483 186.803C60.3288 187.933 60.7668 189.397 60.7261 189.662C60.7 189.776 60.6532 189.943 60.6355 189.999C60.6245 190.031 60.6054 190.086 60.5974 190.107C60.5727 190.174 60.5504 190.227 60.5498 190.228C60.5436 190.243 60.5385 190.255 60.5363 190.26C60.533 190.267 60.5301 190.274 60.5283 190.278C60.5297 190.275 60.5313 190.272 60.5329 190.268C60.5438 190.244 60.5599 190.207 60.5819 190.157C60.6257 190.057 60.692 189.904 60.7865 189.683C60.9539 189.291 61.1729 188.771 61.4401 188.132C61.9742 186.853 62.6912 185.121 63.5563 183.023C65.2695 178.869 67.6141 173.162 70.2021 166.888C75.4072 154.27 81.7837 138.905 86.99 126.832C91.3271 116.774 87.3811 102.89 76.974 92.9407C66.8102 83.2238 51.0944 77.9657 33.0771 84.7213C19.1163 89.9559 12.1388 98.8305 8.91991 107.92C5.63775 117.189 6.21763 126.87 7.85899 133.309C8.68732 136.558 6.13256 139.882 2.51577 139.898L-4.5962 139.928L-4.72381 139.927C-7.0988 139.889 -9.1865 138.339 -9.75123 136.05C-13.2726 121.781 -9.75408 108.931 -8.05791 103.607C-7.68746 102.444 -6.80355 100.795 -5.73022 99.063C-4.58427 97.2142 -3.01948 94.95 -1.06278 92.4745C2.84356 87.5324 8.40018 81.6371 15.4391 76.5014ZM60.522 190.292C60.5197 190.298 60.5231 190.29 60.5268 190.282C60.5271 190.281 60.5276 190.28 60.5283 190.278C60.5252 190.285 60.523 190.29 60.522 190.292ZM-4.12896 139.959C-3.14278 140.092 -2.34437 140.64 -1.86496 141.382C-2.34689 140.639 -3.14829 140.092 -4.12896 139.959ZM-7.67967 141.897C-7.77114 142.099 -7.83879 142.305 -7.88423 142.51C-7.88429 142.51 -7.88455 142.511 -7.88479 142.511C-7.88501 142.51 -7.88514 142.51 -7.88509 142.51C-7.83945 142.305 -7.77173 142.1 -7.68002 141.898L-7.67967 141.897Z" fill="#00BFFF"/>
</g>
<g filter="url(#filter1_g_861_3314)">
<path d="M36.1289 161.497C38.8745 162.721 42.5512 164.134 45.2172 165.916C46.5519 166.808 47.425 167.664 47.819 168.441C48.1458 169.086 48.1457 169.635 47.6982 170.353C42.864 177.91 39.1771 184.545 35.0597 192.597C30.8455 200.805 26.1035 207.523 21.2875 215.737L21.2778 215.754L21.2686 215.77C16.7255 223.861 11.8128 231.554 7.05181 239.674C6.76753 240.159 6.17111 240.849 5.276 241.685C4.41037 242.493 3.37708 243.336 2.33721 244.13C0.668151 245.403 -0.951842 246.499 -1.79087 247.053C-2.09134 247.251 -2.41061 247.42 -2.74281 247.562L-5.5154 248.745C-9.37005 250.39 -13.6808 247.922 -13.9039 243.894C-13.9381 243.277 -13.9707 242.659 -14.0009 242.046C-14.1765 238.488 -14.259 235.331 -14.141 233.863C-14.1366 233.808 -14.1239 233.755 -14.1021 233.705C-14.0264 233.528 -13.9143 233.281 -13.7656 232.964C-13.4695 232.332 -13.0525 231.473 -12.5476 230.452C-11.5392 228.414 -10.1988 225.766 -8.81858 223.07C-6.04046 217.645 -3.16034 212.144 -2.48337 210.99C-0.0552051 206.849 1.85566 202.803 3.76028 198.963C5.67875 195.096 7.61051 191.392 10.1392 187.74C13.3953 183.064 15.8927 178.362 18.2431 173.709C20.6094 169.026 22.8028 164.445 25.5153 159.818L25.53 159.793L25.5441 159.768C26.1207 158.718 26.6474 158.347 27.047 158.191C27.4979 158.016 28.1329 157.981 29.0717 158.224C30.0089 158.466 31.0633 158.934 32.2747 159.542C33.4192 160.116 34.7945 160.864 36.0964 161.482L36.1125 161.489L36.1289 161.497Z" fill="#00BFFF"/>
</g>
<g filter="url(#filter2_g_861_3314)">
<path d="M110.802 17.1254C116.5 13.689 123.717 17.64 123.479 24.0694C123.466 24.4131 123.453 24.7545 123.439 25.0931C123.312 28.1495 123.136 30.8673 122.902 32.9007C122.759 34.1413 122.21 35.2988 121.447 36.3166C118.734 39.9347 116.609 43.4569 114.448 47.5154C113.428 49.4166 112.177 51.1743 110.653 53.161C109.222 55.0258 107.32 57.3739 105.631 59.8143L105.554 59.9256L105.482 60.0394C104.148 62.1314 102.667 64.1921 101.061 66.3781C99.726 68.1959 98.2653 70.152 96.8527 72.1501C96.5752 72.5427 96.0545 72.7048 95.6098 72.5148C92.903 71.0508 90.1183 69.2888 87.2987 67.4112C85.2955 66.0496 83.0817 64.5369 81.2886 63.0532C80.5947 62.479 80.0224 61.955 79.5793 61.4934C79.5669 61.4806 79.5644 61.4617 79.5725 61.4457C80.1764 60.2581 80.9388 58.8086 81.7169 57.3588C82.4941 55.9108 83.2712 54.4917 83.9011 53.3688C84.5938 52.1339 84.9251 51.589 84.9351 51.5701C86.8819 48.757 88.2516 45.7559 89.2452 43.7733C90.341 41.5869 91.1863 40.1542 92.3088 38.9637C92.3089 38.9636 92.3089 38.9635 92.3089 38.9634C92.3089 38.9632 92.309 38.9631 92.3091 38.963C95.3044 35.8121 97.2034 32.4184 98.6819 29.5738C100.179 26.6929 101.149 24.6127 102.497 22.586C102.514 22.5604 102.535 22.5369 102.559 22.5172C102.931 22.214 103.524 21.7755 104.359 21.2035C106.014 20.0703 108.259 18.6597 110.802 17.1254Z" fill="#00BFFF"/>
</g>
<g filter="url(#filter3_g_861_3314)">
<path d="M27.6207 96.7861C35.2866 90.7009 47.2652 86.2076 59.5466 92.1766C69.4177 96.9743 74.3606 104.338 75.8366 112.075C77.2313 119.385 75.4245 126.346 73.2719 131.007C70.9751 135.98 65.2769 137.899 60.6398 136.383L58.7668 135.77C53.156 133.936 50.8296 128.132 52.6251 123.254L52.6278 123.247L52.6305 123.24L52.7171 122.999L52.7298 122.964L52.7366 122.942C53.2117 121.584 53.5679 120.11 53.7112 118.681C53.857 117.226 53.7632 116.021 53.512 115.095L53.4599 114.913L53.4265 114.809C53.0693 113.742 52.3113 112.914 51.3925 112.421L51.3921 112.421C50.6278 112.012 49.5242 111.624 47.9292 111.378C45.3981 110.989 43.751 111.218 42.7254 111.534C42.3959 111.635 41.9644 111.795 41.5028 112.066L41.4101 112.122C40.9102 112.429 40.5642 112.758 40.3615 112.965C39.7057 113.635 39.1174 114.544 38.6523 115.665C38.1875 116.786 37.912 117.963 37.7939 118.988C37.1564 124.522 31.4096 129.618 24.606 127.845L22.6559 127.336C22.6556 127.336 22.6553 127.336 22.655 127.336C20.0117 126.647 16.6767 124.539 15.7517 120.442L15.703 120.218C14.7293 115.513 16.5215 110.768 18.449 107.357C20.5837 103.578 23.7659 99.8461 27.6207 96.7861Z" fill="#00BFFF"/>
</g>
<defs>
<filter id="filter0_g_861_3314" x="-16.4607" y="58.8779" width="126.258" height="159.056" filterUnits="userSpaceOnUse" color-interpolation-filters="sRGB">
<feFlood flood-opacity="0" result="BackgroundImageFix"/>
<feBlend mode="normal" in="SourceGraphic" in2="BackgroundImageFix" result="shape"/>
<feTurbulence type="fractalNoise" baseFrequency="0.016077170148491859 0.011574073694646358" numOctaves="3" seed="9234" />
<feDisplacementMap in="shape" scale="10.399999618530273" xChannelSelector="R" yChannelSelector="G" result="displacedImage" width="100%" height="100%" />
<feMerge result="effect1_texture_861_3314">
<feMergeNode in="displacedImage"/>
</feMerge>
</filter>
<filter id="filter1_g_861_3314" x="-19.3963" y="152.851" width="72.6471" height="101.61" filterUnits="userSpaceOnUse" color-interpolation-filters="sRGB">
<feFlood flood-opacity="0" result="BackgroundImageFix"/>
<feBlend mode="normal" in="SourceGraphic" in2="BackgroundImageFix" result="shape"/>
<feTurbulence type="fractalNoise" baseFrequency="0.016077170148491859 0.011574073694646358" numOctaves="3" seed="9234" />
<feDisplacementMap in="shape" scale="10.399999618530273" xChannelSelector="R" yChannelSelector="G" result="displacedImage" width="100%" height="100%" />
<feMerge result="effect1_texture_861_3314">
<feMergeNode in="displacedImage"/>
</feMerge>
</filter>
<filter id="filter2_g_861_3314" x="74.3679" y="10.6562" width="54.3165" height="67.138" filterUnits="userSpaceOnUse" color-interpolation-filters="sRGB">
<feFlood flood-opacity="0" result="BackgroundImageFix"/>
<feBlend mode="normal" in="SourceGraphic" in2="BackgroundImageFix" result="shape"/>
<feTurbulence type="fractalNoise" baseFrequency="0.016077170148491859 0.011574073694646358" numOctaves="3" seed="9234" />
<feDisplacementMap in="shape" scale="10.399999618530273" xChannelSelector="R" yChannelSelector="G" result="displacedImage" width="100%" height="100%" />
<feMerge result="effect1_texture_861_3314">
<feMergeNode in="displacedImage"/>
</feMerge>
</filter>
<filter id="filter3_g_861_3314" x="10.2297" y="84.1665" width="71.2975" height="57.9225" filterUnits="userSpaceOnUse" color-interpolation-filters="sRGB">
<feFlood flood-opacity="0" result="BackgroundImageFix"/>
<feBlend mode="normal" in="SourceGraphic" in2="BackgroundImageFix" result="shape"/>
<feTurbulence type="fractalNoise" baseFrequency="0.016077170148491859 0.011574073694646358" numOctaves="3" seed="9234" />
<feDisplacementMap in="shape" scale="10.399999618530273" xChannelSelector="R" yChannelSelector="G" result="displacedImage" width="100%" height="100%" />
<feMerge result="effect1_texture_861_3314">
<feMergeNode in="displacedImage"/>
</feMerge>
</filter>
</defs>
</svg>
