<svg width="2167" height="1139" viewBox="0 0 2167 1139" fill="none" xmlns="http://www.w3.org/2000/svg">
<path d="M1083.37 325.724L1016.65 280.689C986.041 260.063 909.866 253.878 904.112 283.58C908.327 284.645 916.252 286.759 913.39 292.656C898.589 289.535 882.249 288.759 869.836 294.023C843.083 305.444 841.083 343.992 859.077 369.681L857.51 409.94C864.802 408.329 873.821 402.101 880.883 406.56C881.429 410.961 872.44 414.284 870.843 419.721C899.711 414.399 918.165 417.952 932.505 444.36C908.298 426.999 877.086 421.792 860.66 442.39C857.035 446.92 854.201 459.765 856.373 464.972C868.009 493.048 854.316 509.503 879.977 508.612C891.714 508.18 900.703 502.11 910.225 499.277L942.186 489.783C904.242 520.521 854.374 531.424 807.757 522.06C795.488 519.601 786.843 513.876 772.761 516.048C752.869 519.126 731.351 509.978 724.001 490.632C686.719 496.299 636.65 482.649 606.372 460.067C582.74 450.344 563.452 435.083 547.946 414.111C522.531 406.013 503.415 387.559 493.634 362.633C495.633 350.982 490.225 342.826 482.53 335.534C453.259 307.989 439.523 259.344 371.762 255.878C367.389 253.62 368.856 249.132 373.114 251.189C379.083 254.195 386.476 251.908 388.389 248.355C396.43 233.454 356.113 212.425 317.795 222.493C302.246 226.578 292.12 234.417 284.626 248.24C278.341 259.833 280.8 274.85 293.875 281.409C302.85 285.925 311.581 289.104 319.708 297.087C311.782 302.15 310.215 310.305 315.249 317.511L329.848 338.339C362.657 343.546 364.872 371.162 390.763 372.701C436.172 375.448 467.988 407.524 474.576 451.02C477.294 468.827 484.414 486.849 490.887 502.959C502.48 531.755 523.307 553.042 551.355 563.629C560.82 577.71 574.47 584.068 590.781 582.888C597.598 578.818 605.725 584.83 610.961 585.031C642.806 586.139 663.864 601.342 685.381 621.825C694.759 630.771 712.048 632.267 716.507 647.514C723.023 669.636 747.144 692.75 769.669 696.245C781.09 699.28 790.381 706.127 788.468 718.827C800.939 738.317 824.974 744.229 846.463 734.505C856.388 730.018 863.853 730.895 872.67 734.419C891.843 742.028 907.723 727.803 928.521 726.35C896.992 747.264 831.461 770.134 808.375 755.678C799.386 750.04 793.575 751.521 783.707 752.298C742.743 755.563 705 727.026 690.516 738.734C687.74 740.978 686.201 762.712 699.132 774.708C709.085 783.927 719.384 779.109 730.574 777.484C747.202 775.053 764.088 783.266 779.766 791.68C746.037 795.377 719.111 776.635 710.725 802.583C707.834 811.458 711.214 816.204 721.944 825.079C705.605 824.518 692.357 822.03 678.765 815.499L650.947 791.695C634.837 795.923 627.516 769.17 599.181 769.832C597.814 780.893 606.315 784.388 613.636 790.084C598.85 791.939 590.061 777.671 582.251 768.652C563.739 747.278 540.438 763.359 522.473 773.169C512.822 778.462 505.385 774.679 499.92 788.789C493.418 805.618 488.643 821.469 499.431 839.923L509.096 873.034C511.93 882.843 540.568 885.648 556.706 901.47C547.227 903.038 543.113 898.895 534.9 901.24C538.568 916.961 551.269 923.592 565.494 926.684C573.046 945.944 591.413 948.346 599.195 962.197C569.205 956.962 545.803 938.493 524.026 917.982C517.899 912.2 507.974 919.032 505.486 925.62C501.286 936.81 504.134 946.965 508.118 959.954C503.645 960.932 500.639 959.896 498.697 961.104C486.14 969.058 495.216 993.726 515.928 1013.53C544.465 1040.83 577.677 1054.83 616.484 1064.35C639.598 1069.99 670.135 1070.91 688.186 1054.63C677.887 1028.69 720.29 1005.72 753.372 1013.65L763.7 1016.14C787.131 1015.73 805.901 1003.38 828.685 994.129C817.581 1007.64 801.414 1012.11 786.081 1017.06L825.88 1029.96C846.578 1040.69 867.808 1052.31 883.601 1071.63C862.256 1057.09 841.817 1039.15 815.754 1030.56L767.138 1020.84C765.224 1021.57 763.24 1022.06 761.154 1022.44C761.125 1022.46 761.096 1022.46 761.096 1022.46C760.348 1022.58 759.586 1022.69 758.81 1022.81C741.146 1025.13 719.226 1019.6 701.52 1044.39C697.852 1049.56 696.025 1064.95 704.209 1065.47C742.455 1052.89 780.601 1053.59 818.832 1070.65C844.679 1082.21 863.594 1115.8 900.934 1122.53C880.077 1129.61 859.149 1122.1 841.04 1109.43C838.969 1107.97 834.223 1115.18 831.677 1114.98C828.138 1114.66 822.586 1112.61 819.35 1108.97L793.848 1080.47C771.165 1055.14 749.014 1055.58 718.938 1071.22C701.592 1080.24 678.794 1081.75 661.907 1093.43L645.309 1113.24C630.206 1121.37 617.764 1131.98 600.734 1135.68C580.957 1141.06 559.122 1138.08 546.105 1121.57C524.3 1121.37 505.615 1112.95 489.333 1101.39L486.126 1104.54L485.752 1104.88C485.263 1105.39 484.975 1105.85 484.831 1106.31C484.313 1107.95 485.809 1109.37 487.607 1109.86L493.562 1111.46L534.8 1128.83C540.208 1131.09 546.22 1128.86 550.765 1134.87C535.461 1136.54 512.879 1128.44 502.638 1119.48C495.259 1113.04 483.019 1112.03 473.626 1107.74C449.678 1100.77 428.045 1085.82 417.343 1062.77C395.279 1048.77 391.87 1021.93 403.089 998.387C411.015 976.207 433.568 966.196 454.108 957.667C465.687 952.863 454.079 940.018 450.584 934.552C442.112 921.363 434.834 912.315 416.955 912.229C406.8 912.2 396.185 912.891 390.892 923.966C382.046 942.506 362.873 950.173 341.815 947.339C309.913 943.096 287.273 920.917 269.308 895.228C237.405 882.498 218.548 844.123 192.025 842.267C178.576 841.318 164.955 849.934 151.334 846.525C76.3952 827.754 58.7034 792.356 3.16846 751.147C36.524 763.719 63.4788 809.214 104.975 822.576C81.4582 797.405 60.487 773.082 41.1986 744.919C36.9842 738.749 28.8863 735.455 27.4623 727.127C47.1247 742.33 58.4014 763.042 73.5617 781.986C91.5555 804.496 112.901 824.561 139.913 832.429C184.502 845.403 197.088 819.958 210.306 828.2L233.191 842.483C240.181 846.856 244.323 844.08 250.134 836.701C277.492 868.287 280.958 904.519 326.597 925.577C347.367 929.245 367.476 927.044 387.541 920.428C402.615 903.254 425.111 897.759 446.887 906.893C457.617 911.395 476.043 921.032 487.089 913.078C495.417 907.051 495.101 890.682 505.831 884.21C485.234 863.857 486.226 841.117 487.32 816.334C486.111 803.201 472.433 789.178 481.825 773.643C486.14 766.552 491.146 752.355 484.285 744.574C452.195 708.14 415.344 717.418 393.97 695.641C386.332 687.888 377.458 678.841 372.884 667.967C369.288 659.495 369 640.092 374.034 632.655C382.161 620.616 382.334 614.662 379.759 601.443C377.328 588.915 378.465 576.689 363.621 569.31C361.147 568.073 357.867 562.866 357.062 560.263C353.912 550.252 371.776 545.074 362.787 530.244C346.332 503.088 320.729 485.339 291.056 475.587C285.446 473.746 282.008 466.655 285.101 461.333C340.219 475.601 374.034 530.892 435.985 524.851C452.18 523.254 462.177 497.953 461.113 493.322C456.251 471.833 443.335 454.659 428.146 439.297C424.506 423.619 412.856 412.069 397.293 405.395C393.495 389.17 384.419 374.643 366.253 370.802C351.15 358.231 329.287 349.486 318.384 332.139C305.281 311.341 289.114 288.902 261.037 288.701C254.234 288.672 253.745 288.14 247.502 284.53C199.95 256.971 203.661 223.788 185.322 222.493C171.255 221.544 160.525 218.998 151.621 205.521C124.091 163.909 117.647 185.945 81.0843 175.991C64.8021 171.561 47.4267 179.026 31.7486 181.831C20.9322 183.773 17.0918 188.476 8.87874 198.574C8.53353 186.678 20.1698 181.558 29.2746 178.149C55.7404 168.253 80.8397 170.856 107.449 175.028C115.72 176.322 122.955 171.029 131.484 178.293C157.95 200.861 168.508 231.426 182.733 207.448C167.343 203.809 159.302 190.13 148.371 177.401C144.401 172.798 139.108 171.345 135.584 164.815C131.067 156.545 127.802 149.54 135.958 140.55C116.094 140.061 105.795 130.108 91.6562 121.693C77.6897 113.394 59.7822 108.619 50.7925 93.9906C43.8308 82.6276 39.8322 65.0796 52.4178 54.9824C46.7507 77.3632 51.5979 96.3927 71.8788 107.037L96.3452 119.881C109.391 126.713 120.093 135.847 134.232 135.156C154.915 134.121 173.599 130.021 187.278 112.402C199.116 97.1406 207.329 77.6653 205.301 57.5714L195.261 30.818C195.578 19.9152 191.636 16.3625 179.813 9.58782C200.641 -5.06904 222.964 -0.264926 242.137 11.7597C263.295 25.0645 273.652 45.6474 286.323 66.6475C293.4 78.442 306.015 91.4016 305.784 106.792C305.756 108.432 312.458 111.654 311.682 112.804C310.488 114.645 309.567 116.127 310.2 119.191C321.074 171.475 351.352 165.923 359.076 181.457C370.266 204.082 370.381 216.74 389.353 235.05C410.267 255.245 443.119 269.01 462.12 253.102C465.701 250.124 467.7 238.819 463.299 236.762C459.631 235.036 449.908 229.455 452.684 224.737C465.816 215.244 484.356 219.646 494.77 230.836L522.703 260.826C529.003 267.586 536.439 275.454 545.458 277.396C567.81 282.142 574.369 312.65 605.984 312.909C617.476 312.995 627.444 323.725 637.34 326.702L683.612 319.957C703.562 317.065 739.665 329.363 748.338 354.635C726.907 351.6 710.682 361.87 708.05 380.698L711.229 385.042C708.222 380.957 697.147 402.13 708.654 434.09C720.319 437.24 725.986 447.251 729.481 457.78C738.428 475.184 755.17 481.383 772.143 471.66C791.345 460.671 800.364 477.241 817.926 468.165C854.719 449.135 821.694 352.478 800.752 306.896C793.33 290.729 794.308 271.642 802.176 256.194C756.868 225.744 817.653 181.069 857.912 152.402L887.47 139.73C881.242 128.713 887.01 120.37 896.288 113.782C910.427 108.863 923.185 102.621 933.714 91.5742C972.779 82.1242 1015.12 82.0091 1045.69 109.137C1013.3 95.1125 984.142 85.8639 951.118 94.3646C939.985 97.2269 932.175 95.5297 922.221 106.806C916.755 112.991 886.823 119.191 887.744 130.841C887.974 133.732 890.98 136.077 895.238 138.249C898.33 137.343 901.192 136.796 903.652 136.652C934.994 134.768 966.465 144.578 993.708 156.574C963.43 152.863 936.734 138.695 906.313 141.212C884.047 143.067 860.731 156.89 846.449 172.885C830.799 190.332 820.558 225.759 828.253 236.632C830.425 239.696 837.761 240.243 841.846 242.328C842.105 249.952 834.151 256.525 837.243 267.572C854.014 247.348 876.712 235.324 903.177 239.135C917.791 236.819 931.096 241.135 942.632 249.405C963.488 249.779 981.668 256.798 999.691 266.608L999.706 266.637C1029.87 283.063 1059.74 299.834 1083.37 325.724ZM1083.37 325.724L1150.1 280.689C1180.71 260.063 1256.88 253.878 1262.64 283.58C1258.42 284.645 1250.5 286.759 1253.36 292.656C1268.16 289.535 1284.5 288.759 1296.91 294.023C1323.67 305.444 1325.67 343.992 1307.67 369.681L1309.24 409.94C1301.95 408.329 1292.93 402.101 1285.87 406.56C1285.32 410.961 1294.31 414.284 1295.91 419.721C1267.04 414.399 1248.59 417.952 1234.24 444.36C1258.45 426.999 1289.66 421.792 1306.09 442.39C1309.72 446.92 1312.55 459.765 1310.38 464.972C1298.74 493.048 1312.43 509.503 1286.77 508.612C1275.04 508.18 1266.05 502.11 1256.52 499.277L1224.56 489.783C1262.51 520.521 1312.38 531.424 1358.99 522.06C1371.26 519.601 1379.91 513.876 1393.99 516.048C1413.88 519.126 1435.4 509.978 1442.75 490.632C1480.03 496.299 1530.1 482.649 1560.38 460.067C1584.01 450.344 1603.3 435.083 1618.8 414.111C1644.22 406.013 1663.34 387.559 1673.12 362.633C1671.12 350.982 1676.53 342.826 1684.22 335.534C1713.49 307.989 1727.23 259.344 1794.99 255.878C1799.36 253.62 1797.89 249.132 1793.64 251.189C1787.67 254.195 1780.27 251.908 1778.36 248.355C1770.32 233.454 1810.64 212.425 1848.96 222.493C1864.5 226.578 1874.63 234.417 1882.12 248.24C1888.41 259.833 1885.95 274.85 1872.88 281.409C1863.9 285.925 1855.17 289.104 1847.04 297.087C1854.97 302.15 1856.54 310.305 1851.5 317.511L1836.9 338.339C1804.09 343.546 1801.88 371.162 1775.99 372.701C1730.58 375.448 1698.76 407.524 1692.17 451.02C1689.46 468.827 1682.34 486.849 1675.86 502.959C1664.27 531.755 1643.44 553.042 1615.39 563.629C1605.93 577.71 1592.28 584.068 1575.97 582.888C1569.15 578.818 1561.02 584.83 1555.79 585.031C1523.94 586.139 1502.89 601.342 1481.37 621.825C1471.99 630.771 1454.7 632.267 1450.24 647.514C1443.73 669.636 1419.61 692.75 1397.08 696.245C1385.66 699.28 1376.37 706.127 1378.28 718.827C1365.81 738.317 1341.78 744.229 1320.29 734.505C1310.36 730.018 1302.9 730.895 1294.08 734.419C1274.91 742.028 1259.03 727.803 1238.23 726.35C1269.76 747.264 1335.29 770.134 1358.37 755.678C1367.36 750.04 1373.18 751.521 1383.04 752.298C1424.01 755.563 1461.75 727.026 1476.23 738.734C1479.01 740.978 1480.55 762.712 1467.62 774.708C1457.66 783.927 1447.37 779.109 1436.18 777.484C1419.55 775.053 1402.66 783.266 1386.98 791.68C1420.71 795.377 1447.64 776.635 1456.02 802.583C1458.92 811.458 1455.54 816.204 1444.81 825.079C1461.15 824.518 1474.39 822.03 1487.99 815.499L1515.8 791.695C1531.91 795.923 1539.23 769.17 1567.57 769.832C1568.94 780.893 1560.44 784.388 1553.11 790.084C1567.9 791.939 1576.69 777.671 1584.5 768.652C1603.01 747.278 1626.31 763.359 1644.28 773.169C1653.93 778.462 1661.36 774.679 1666.83 788.789C1673.33 805.618 1678.11 821.469 1667.32 839.923L1657.65 873.034C1654.82 882.843 1626.18 885.648 1610.04 901.47C1619.52 903.038 1623.64 898.895 1631.85 901.24C1628.18 916.961 1615.48 923.592 1601.26 926.684C1593.7 945.944 1575.34 948.346 1567.56 962.197C1597.54 956.962 1620.95 938.493 1642.72 917.982C1648.85 912.2 1658.78 919.032 1661.26 925.62C1665.46 936.81 1662.62 946.965 1658.63 959.954C1663.11 960.932 1666.11 959.896 1668.05 961.104C1680.61 969.058 1671.53 993.726 1650.82 1013.53C1622.28 1040.83 1589.07 1054.83 1550.27 1064.35C1527.15 1069.99 1496.62 1070.91 1478.56 1054.63C1488.86 1028.69 1446.46 1005.72 1413.38 1013.65L1403.05 1016.14C1379.62 1015.73 1360.85 1003.38 1338.07 994.129C1349.17 1007.64 1365.34 1012.11 1380.67 1017.06L1340.87 1029.96C1320.17 1040.69 1298.94 1052.31 1283.15 1071.63C1304.49 1057.09 1324.93 1039.15 1351 1030.56L1399.61 1020.84C1401.53 1021.57 1403.51 1022.06 1405.6 1022.44C1405.62 1022.46 1405.65 1022.46 1405.65 1022.46C1406.4 1022.58 1407.16 1022.69 1407.94 1022.81C1425.6 1025.13 1447.52 1019.6 1465.23 1044.39C1468.9 1049.56 1470.72 1064.95 1462.54 1065.47C1424.29 1052.89 1386.15 1053.59 1347.92 1070.65C1322.07 1082.21 1303.16 1115.8 1265.82 1122.53C1286.67 1129.61 1307.6 1122.1 1325.71 1109.43C1327.78 1107.97 1332.53 1115.18 1335.07 1114.98C1338.61 1114.66 1344.16 1112.61 1347.4 1108.97L1372.9 1080.47C1395.58 1055.14 1417.74 1055.58 1447.81 1071.22C1465.16 1080.24 1487.96 1081.75 1504.84 1093.43L1521.44 1113.24C1536.54 1121.37 1548.99 1131.98 1566.02 1135.68C1585.79 1141.06 1607.63 1138.08 1620.64 1121.57C1642.45 1121.37 1661.13 1112.95 1677.42 1101.39L1680.62 1104.54L1681 1104.88C1681.49 1105.39 1681.77 1105.85 1681.92 1106.31C1682.44 1107.95 1680.94 1109.37 1679.14 1109.86L1673.19 1111.46L1631.95 1128.83C1626.54 1131.09 1620.53 1128.86 1615.98 1134.87C1631.29 1136.54 1653.87 1128.44 1664.11 1119.48C1671.49 1113.04 1683.73 1112.03 1693.12 1107.74C1717.07 1100.77 1738.71 1085.82 1749.41 1062.77C1771.47 1048.77 1774.88 1021.93 1763.66 998.387C1755.74 976.207 1733.18 966.196 1712.64 957.667C1701.06 952.863 1712.67 940.018 1716.17 934.552C1724.64 921.363 1731.92 912.315 1749.79 912.229C1759.95 912.2 1770.56 912.891 1775.86 923.966C1784.7 942.506 1803.88 950.173 1824.93 947.339C1856.84 943.096 1879.48 920.917 1897.44 895.228C1929.35 882.498 1948.2 844.123 1974.73 842.267C1988.17 841.318 2001.8 849.934 2015.42 846.525C2090.35 827.754 2108.05 792.356 2163.58 751.147C2130.23 763.719 2103.27 809.214 2061.77 822.576C2085.29 797.405 2106.26 773.082 2125.55 744.919C2129.77 738.749 2137.86 735.455 2139.29 727.127C2119.63 742.33 2108.35 763.042 2093.19 781.986C2075.19 804.496 2053.85 824.561 2026.84 832.429C1982.25 845.403 1969.66 819.958 1956.44 828.2L1933.56 842.483C1926.57 846.856 1922.43 844.08 1916.62 836.701C1889.26 868.287 1885.79 904.519 1840.15 925.577C1819.38 929.245 1799.27 927.044 1779.21 920.428C1764.14 903.254 1741.64 897.759 1719.86 906.893C1709.13 911.395 1690.71 921.032 1679.66 913.078C1671.33 907.051 1671.65 890.682 1660.92 884.21C1681.52 863.857 1680.52 841.117 1679.43 816.334C1680.64 803.201 1694.32 789.178 1684.93 773.643C1680.61 766.552 1675.6 752.355 1682.47 744.574C1714.56 708.14 1751.41 717.418 1772.78 695.641C1780.42 687.888 1789.29 678.841 1793.87 667.967C1797.46 659.495 1797.75 640.092 1792.72 632.655C1784.59 620.616 1784.42 614.662 1786.99 601.443C1789.42 588.915 1788.29 576.689 1803.13 569.31C1805.6 568.073 1808.88 562.866 1809.69 560.263C1812.84 550.252 1794.97 545.074 1803.96 530.244C1820.42 503.088 1846.02 485.339 1875.69 475.587C1881.3 473.746 1884.74 466.655 1881.65 461.333C1826.53 475.601 1792.72 530.892 1730.77 524.851C1714.57 523.254 1704.57 497.953 1705.64 493.322C1710.5 471.833 1723.42 454.659 1738.6 439.297C1742.24 423.619 1753.89 412.069 1769.46 405.395C1773.25 389.17 1782.33 374.643 1800.5 370.802C1815.6 358.231 1837.46 349.486 1848.37 332.139C1861.47 311.341 1877.64 288.902 1905.71 288.701C1912.52 288.672 1913.01 288.14 1919.25 284.53C1966.8 256.971 1963.09 223.788 1981.43 222.493C1995.5 221.544 2006.23 218.998 2015.13 205.521C2042.66 163.909 2049.1 185.945 2085.67 175.991C2101.95 171.561 2119.32 179.026 2135 181.831C2145.82 183.773 2149.66 188.476 2157.87 198.574C2158.22 186.678 2146.58 181.558 2137.48 178.149C2111.01 168.253 2085.91 170.856 2059.3 175.028C2051.03 176.322 2043.8 171.029 2035.27 178.293C2008.8 200.861 1998.24 231.426 1984.02 207.448C1999.41 203.809 2007.45 190.13 2018.38 177.401C2022.35 172.798 2027.64 171.345 2031.17 164.815C2035.68 156.545 2038.95 149.54 2030.79 140.55C2050.66 140.061 2060.95 130.108 2075.09 121.693C2089.06 113.394 2106.97 108.619 2115.96 93.9906C2122.92 82.6276 2126.92 65.0796 2114.33 54.9824C2120 77.3632 2115.15 96.3927 2094.87 107.037L2070.4 119.881C2057.36 126.713 2046.66 135.847 2032.52 135.156C2011.83 134.121 1993.15 130.021 1979.47 112.402C1967.63 97.1406 1959.42 77.6653 1961.45 57.5714L1971.49 30.818C1971.17 19.9152 1975.11 16.3625 1986.94 9.58782C1966.11 -5.06904 1943.79 -0.264926 1924.61 11.7597C1903.45 25.0645 1893.1 45.6474 1880.43 66.6475C1873.35 78.442 1860.74 91.4016 1860.97 106.792C1860.99 108.432 1854.29 111.654 1855.07 112.804C1856.26 114.645 1857.18 116.127 1856.55 119.191C1845.68 171.475 1815.4 165.923 1807.67 181.457C1796.48 204.082 1796.37 216.74 1777.4 235.05C1756.48 255.245 1723.63 269.01 1704.63 253.102C1701.05 250.124 1699.05 238.819 1703.45 236.762C1707.12 235.036 1716.84 229.455 1714.07 224.737C1700.93 215.244 1682.39 219.646 1671.98 230.836L1644.05 260.826C1637.75 267.586 1630.31 275.454 1621.29 277.396C1598.94 282.142 1592.38 312.65 1560.77 312.909C1549.27 312.995 1539.31 323.725 1529.41 326.702L1483.14 319.957C1463.19 317.065 1427.09 329.363 1418.41 354.635C1439.84 351.6 1456.07 361.87 1458.7 380.698L1455.52 385.042C1458.53 380.957 1469.6 402.13 1458.1 434.09C1446.43 437.24 1440.76 447.251 1437.27 457.78C1428.32 475.184 1411.58 481.383 1394.61 471.66C1375.4 460.671 1366.39 477.241 1348.82 468.165C1312.03 449.135 1345.06 352.478 1366 306.896C1373.42 290.729 1372.44 271.642 1364.57 256.194C1409.88 225.744 1349.1 181.069 1308.84 152.402L1279.28 139.73C1285.51 128.713 1279.74 120.37 1270.46 113.782C1256.32 108.863 1243.57 102.621 1233.04 91.5742C1193.97 82.1242 1151.63 82.0091 1121.06 109.137C1153.45 95.1125 1182.61 85.8639 1215.63 94.3646C1226.77 97.2269 1234.58 95.5297 1244.53 106.806C1249.99 112.991 1279.93 119.191 1279.01 130.841C1278.78 133.732 1275.77 136.077 1271.51 138.249C1268.42 137.343 1265.56 136.796 1263.1 136.652C1231.76 134.768 1200.28 144.578 1173.04 156.574C1203.32 152.863 1230.02 138.695 1260.44 141.212C1282.7 143.067 1306.02 156.89 1320.3 172.885C1335.95 190.332 1346.19 225.759 1338.5 236.632C1336.32 239.696 1328.99 240.243 1324.9 242.328C1324.65 249.952 1332.6 256.525 1329.51 267.572C1312.74 247.348 1290.04 235.324 1263.57 239.135C1248.96 236.819 1235.65 241.135 1224.12 249.405C1203.26 249.779 1185.08 256.798 1167.06 266.608L1167.04 266.637C1136.88 283.063 1107.01 299.834 1083.37 325.724ZM526.256 1039.34C523.278 1043.71 519.639 1041.42 515.296 1043.23C553.211 1097.03 668.783 1064.87 654.672 1093.62C640.879 1121.67 588.968 1144.12 560.388 1128.3C550.751 1122.98 544.106 1117.05 532.714 1115.14C503.07 1110.19 479.035 1093.56 463.788 1068.61C457.373 1058.08 450.8 1050.41 448.398 1036.79C444.989 1017.19 448.858 996.33 466.794 985.628C469.513 984.003 470.793 976.523 476.776 978.25C480.243 979.199 483.278 981.601 485.076 986.664C492.771 1008.47 507.989 1023.77 526.256 1039.34ZM651.048 764.927C637.887 758.914 625.69 757.836 611.076 756.627C573.161 753.477 543.775 712.153 557.914 693.872C566.674 682.538 592.478 719.877 620.008 727.975L648.617 726.652C662.727 729.802 671.544 741.697 678.578 754.815C673.457 768.091 661.404 769.716 651.048 764.941V764.927ZM554.016 605.859C561.28 591.749 573.046 592.928 588.522 593.777C605.984 594.697 626.437 586.944 643.065 597.761C648.588 601.342 656.514 603.399 661.692 607.484C677.514 620.012 692.17 635.949 702.181 653.612C719.787 684.681 688.531 725.66 684.274 726.695C680.376 727.645 675.572 724.293 671.947 721.949C662.986 713.707 652.86 711.564 643.223 719.777C626.308 716.972 612.039 709.421 600.446 697.655L558.245 654.878C555.095 651.699 559.453 642.321 561.28 639.315C550.837 627.894 548.176 617.164 553.987 605.859H554.016ZM502.652 607.772C496.237 630.181 461.99 625.363 460.767 638.797C477.28 640.969 495.13 639.977 509.787 629.434C516.964 642.077 511.498 650.462 509.959 660.818C505.587 690.233 480.372 712.47 448.009 706.918C440.918 705.71 434.561 701.021 430.72 694.073C437.48 693.901 443.133 695.31 450.987 694.044C450.872 684.796 443.896 682.365 436.531 679.963C410.353 671.491 388.289 643.99 392.345 616.244C406.915 626.111 417.674 640.797 434.978 635.734C421.558 622.342 405.88 614.877 402.701 597.272C402.183 594.294 406.455 587.879 405.477 585.089C403.506 579.566 374.595 560.623 392.431 543.477C400.903 535.351 412.913 539.364 422.622 539.493C469.858 540.04 511.498 576.89 502.652 607.772ZM339.629 208.973C332.48 216.496 320.082 217.704 308.834 213.173C304.605 218.035 301.34 223.5 297.269 225.284C290.178 228.376 282.871 226.089 275.982 223.716L252.465 215.618C249.171 214.496 247.286 216.107 245.115 218.337C243.633 219.847 246.064 223.083 249.372 225.687C239.678 242.487 205.272 229.858 199.274 220.278C190.543 206.398 178.073 200.817 164.883 191.18C155.419 184.262 151.06 171.547 140.762 165.434C136.274 162.773 133.21 155.02 134.375 151.18C139.582 133.977 173.01 137.587 191.378 121.765C211.04 104.879 212.521 70.1427 225.049 64.0728C239.562 57.0105 256.046 68.9632 261.843 82.2105L283.878 131.632C283.878 131.632 283.993 131.719 284.051 131.747L284.137 132.179C296.162 159.335 332.15 160.903 341.369 179.443C346.26 189.311 347.641 200.559 339.629 208.973ZM660.8 445.065C644.431 457.535 627.948 452.185 611.522 446.978C594.376 441.541 584.797 424.683 569.119 416.672C542.193 402.907 518.676 384.424 514.749 351.14C514.087 345.646 519.697 336.627 525.364 335.865C531.146 335.088 535.145 340.985 541.733 345.027C536.871 331.578 524.271 324.085 509.859 319.496C495.806 314.98 483.997 291.995 497.834 281.322C509.37 272.39 532.599 281.639 543.157 288.73L585.185 316.807C617.405 333.06 649.94 352.55 665.82 386.682C664.396 395.068 662.123 402.935 669.962 412.27C675.859 419.333 668.366 439.311 660.829 445.065H660.8ZM1640.49 1039.34C1643.47 1043.71 1647.11 1041.42 1651.45 1043.23C1613.54 1097.03 1497.97 1064.87 1512.08 1093.62C1525.87 1121.67 1577.78 1144.12 1606.36 1128.3C1616 1122.98 1622.64 1117.05 1634.04 1115.14C1663.68 1110.19 1687.72 1093.56 1702.96 1068.61C1709.38 1058.08 1715.95 1050.41 1718.35 1036.79C1721.76 1017.19 1717.89 996.33 1699.96 985.628C1697.24 984.003 1695.96 976.523 1689.97 978.25C1686.51 979.199 1683.47 981.601 1681.67 986.664C1673.98 1008.47 1658.76 1023.77 1640.49 1039.34ZM1515.7 764.927C1528.86 758.914 1541.06 757.836 1555.67 756.627C1593.59 753.477 1622.97 712.153 1608.84 693.872C1600.08 682.538 1574.27 719.877 1546.74 727.975L1518.13 726.652C1504.02 729.802 1495.21 741.697 1488.17 754.815C1493.29 768.091 1505.35 769.716 1515.7 764.941V764.927ZM1612.73 605.859C1605.47 591.749 1593.7 592.928 1578.23 593.777C1560.77 594.697 1540.31 586.944 1523.69 597.761C1518.16 601.342 1510.24 603.399 1505.06 607.484C1489.24 620.012 1474.58 635.949 1464.57 653.612C1446.96 684.681 1478.22 725.66 1482.48 726.695C1486.37 727.645 1491.18 724.293 1494.8 721.949C1503.76 713.707 1513.89 711.564 1523.53 719.777C1540.44 716.972 1554.71 709.421 1566.3 697.655L1608.51 654.878C1611.66 651.699 1607.3 642.321 1605.47 639.315C1615.91 627.894 1618.57 617.164 1612.76 605.859H1612.73ZM1664.1 607.772C1670.51 630.181 1704.76 625.363 1705.98 638.797C1689.47 640.969 1671.62 639.977 1656.96 629.434C1649.79 642.077 1655.25 650.462 1656.79 660.818C1661.16 690.233 1686.38 712.47 1718.74 706.918C1725.83 705.71 1732.19 701.021 1736.03 694.073C1729.27 693.901 1723.62 695.31 1715.76 694.044C1715.88 684.796 1722.85 682.365 1730.22 679.963C1756.4 671.491 1778.46 643.99 1774.41 616.244C1759.83 626.111 1749.08 640.797 1731.77 635.734C1745.19 622.342 1760.87 614.877 1764.05 597.272C1764.57 594.294 1760.29 587.879 1761.27 585.089C1763.24 579.566 1792.15 560.623 1774.32 543.477C1765.85 535.351 1753.84 539.364 1744.13 539.493C1696.89 540.04 1655.25 576.89 1664.1 607.772ZM1827.12 208.973C1834.27 216.496 1846.67 217.704 1857.92 213.173C1862.15 218.035 1865.41 223.5 1869.48 225.284C1876.57 228.376 1883.88 226.089 1890.77 223.716L1914.29 215.618C1917.58 214.496 1919.46 216.107 1921.64 218.337C1923.12 219.847 1920.69 223.083 1917.38 225.687C1927.07 242.487 1961.48 229.858 1967.48 220.278C1976.21 206.398 1988.68 200.817 2001.87 191.18C2011.33 184.262 2015.69 171.547 2025.99 165.434C2030.48 162.773 2033.54 155.02 2032.37 151.18C2027.17 133.977 1993.74 137.587 1975.37 121.765C1955.71 104.879 1954.23 70.1427 1941.7 64.0728C1927.19 57.0105 1910.7 68.9632 1904.91 82.2105L1882.87 131.632C1882.87 131.632 1882.76 131.719 1882.7 131.747L1882.61 132.179C1870.59 159.335 1834.6 160.903 1825.38 179.443C1820.49 189.311 1819.11 200.559 1827.12 208.973ZM1505.95 445.065C1522.32 457.535 1538.8 452.185 1555.23 446.978C1572.37 441.541 1581.95 424.683 1597.63 416.672C1624.56 402.907 1648.07 384.424 1652 351.14C1652.66 345.646 1647.05 336.627 1641.39 335.865C1635.6 335.088 1631.61 340.985 1625.02 345.027C1629.88 331.578 1642.48 324.085 1656.89 319.496C1670.94 314.98 1682.75 291.995 1668.92 281.322C1657.38 272.39 1634.15 281.639 1623.59 288.73L1581.56 316.807C1549.35 333.06 1516.81 352.55 1500.93 386.682C1502.35 395.068 1504.63 402.935 1496.79 412.27C1490.89 419.333 1498.38 439.311 1505.92 445.065H1505.95Z" stroke="#8A9AA3" stroke-miterlimit="10"/>
</svg>
