<svg width="110" height="110" viewBox="0 0 110 110" fill="none" xmlns="http://www.w3.org/2000/svg">
<g filter="url(#filter0_g_626_531)">
<g filter="url(#filter1_g_626_531)">
<path d="M19.781 37.0785C20.5397 35.7933 21.5311 34.565 22.7537 34.2224L22.7625 34.2199L22.7712 34.2173C22.8045 34.2071 22.9576 34.1941 23.3321 34.3397C23.6874 34.4779 24.0608 34.6812 24.5171 34.9105C25.8554 35.5838 27.5808 36.4614 28.8806 37.1151C29.2772 37.3426 29.6862 37.5134 30.1395 37.587C30.5958 37.6612 31.0527 37.6297 31.5364 37.5106C32.8976 37.2637 35.5004 36.7463 37.0666 36.4582L37.0791 36.4559L37.0915 36.4532C38.0538 36.2449 38.8775 36.2745 39.3815 36.5138C39.6138 36.6241 39.77 36.7736 39.8663 36.971C39.9659 37.1753 40.0312 37.493 39.9648 37.9841L39.9639 37.99L39.9632 37.996C39.3806 42.8776 41.2623 47.2005 44.0641 50.8006C44.3324 51.2189 44.5558 51.6407 44.7275 52.0843C45.7445 54.9221 45.3889 58.572 44.0708 61.6037C43.7668 62.2949 43.2381 63.0348 42.6119 63.7755C41.9883 64.5131 41.3104 65.2034 40.7214 65.8199C40.3056 66.2544 39.847 66.8528 39.6905 67.486C39.6077 67.8215 39.5979 68.2176 39.7838 68.5973C39.9714 68.9805 40.3066 69.2419 40.705 69.4064L40.7276 69.4158L40.7508 69.4237C41.5924 69.7104 42.4673 69.3784 43.1772 68.9292C43.9143 68.4628 44.6604 67.7557 45.3548 66.9517C46.5575 65.5593 47.6983 63.7666 48.4524 62.1157C48.4676 62.1491 48.4832 62.1834 48.4987 62.2186C48.6631 62.5901 48.876 63.1354 49.0733 63.5467C49.2501 63.9327 49.3048 64.2657 49.2754 64.5969C49.2449 64.9394 49.1202 65.3284 48.8655 65.8182L48.8634 65.8221L48.8615 65.826C48.2248 67.0841 47.5697 68.583 47.1517 69.9471C46.9431 70.6282 46.7863 71.2988 46.7268 71.9017C46.6702 72.4748 46.6911 73.0814 46.9256 73.5832C47.1704 74.1839 47.7141 74.5673 48.2831 74.6925C48.8673 74.8211 49.5677 74.6941 50.0786 74.1599C50.2961 73.9494 50.4482 73.6835 50.5591 73.4477C50.6797 73.1911 50.7836 72.9003 50.8764 72.6075C51.0516 72.0553 51.2407 71.3114 51.4081 70.7439C51.5932 70.1165 51.7772 69.6053 51.9821 69.2673C52.0478 69.159 52.1041 69.0885 52.1471 69.044C52.165 69.0638 52.1845 69.0863 52.2054 69.1118C52.33 69.2644 52.448 69.4512 52.5646 69.637C54.1268 72.4824 58.1099 76.542 61.6795 79.2384C63.4618 80.5848 65.2388 81.6675 66.6308 82.0593C67.308 82.2498 68.08 82.3311 68.7261 81.9833C69.448 81.5947 69.7154 80.85 69.7299 80.062L69.7323 79.9278L69.6888 79.8018C69.5141 79.2963 69.0798 78.8854 68.6644 78.5603C68.2225 78.2144 67.6617 77.862 67.0663 77.5057C65.8469 76.7761 64.4413 76.0035 63.1906 75.0857L63.1885 75.0841L63.1864 75.0826C63.0056 74.9518 62.7901 74.7819 62.6177 74.6121C62.5835 74.5784 62.553 74.5466 62.5261 74.5169C62.6415 74.4724 62.7826 74.4318 62.9501 74.3891C63.1031 74.3502 63.3233 74.2992 63.4917 74.2493C64.9863 73.8586 66.5561 73.4298 67.7466 72.862C68.6533 72.4295 69.5947 71.7924 69.905 70.8378L70.2417 70.8147L69.9826 69.886C69.8886 69.5489 69.7074 69.2581 69.4332 69.0445C69.1659 68.8362 68.858 68.7382 68.5677 68.6991C68.0138 68.6246 67.3949 68.7485 66.8596 68.8967C66.3073 69.0495 65.7275 69.2634 65.2358 69.4402C64.7132 69.6281 64.3182 69.7629 64.0466 69.8125L64.007 69.8197L63.9683 69.8308L63.8419 69.8663C62.5287 70.2277 61.0214 70.4071 59.8055 70.284L59.7878 70.2821L59.7701 70.2811L59.7361 70.2788C59.019 70.2212 58.1033 69.6089 57.0493 68.3448C56.0154 67.1047 54.9864 65.4065 54.0271 63.556C52.1174 59.872 50.5502 55.7162 49.8162 53.7198C49.7942 53.6487 49.7702 53.5773 49.7486 53.5135C49.7235 53.4391 49.7009 53.3727 49.6798 53.3058C49.6414 53.1842 49.6177 53.0908 49.6068 53.0174C49.6826 53.007 49.7817 53.0005 49.9054 52.9987C50.1799 52.9949 50.4548 53.0132 50.7703 53.0229C51.9722 53.0611 53.1057 52.7192 54.1029 52.4537C57.9616 51.664 61.4184 48.8639 62.0469 44.942C62.2682 43.748 62.178 42.524 62.0517 41.4356L62.0502 41.4222L62.0481 41.409C61.5515 38.1471 61.7159 34.4522 62.8997 31.5418C64.0629 28.6821 66.1746 26.6287 69.6575 26.3565C72.7041 26.3438 75.0226 27.7729 76.941 29.9186C78.8795 32.0867 80.3517 34.9224 81.6947 37.5978C82.1066 38.5066 82.8889 39.0372 83.5212 39.4349C84.1688 39.8422 84.6471 40.1121 84.9717 40.4849C87.11 47.7356 86.7843 56.0152 85.0646 64.3637C83.3368 72.7516 80.2126 81.1577 76.8356 88.5695C76.4821 89.2181 75.8061 89.4971 74.7807 89.4843L74.7707 89.4842L74.439 89.4878C60.8486 89.6038 49.7375 85.9267 41.7579 79.1033C33.719 72.2292 28.7861 62.1007 27.7436 49.2415L27.7227 48.9838L27.5479 48.7943C27.0274 48.2299 26.3139 48.3121 25.8849 48.4356C25.4486 48.5612 25.0249 48.8028 24.7763 48.9427L24.6549 49.0106C19.5521 51.8847 16.0065 56.2556 12.4967 60.5758C12.4207 60.6385 12.3667 60.667 12.3356 60.6796C12.3032 60.6928 12.2894 60.6917 12.2851 60.6914C12.2704 60.6905 12.1904 60.6772 12.0405 60.5414C11.7172 60.2485 11.4549 59.767 11.1652 59.2962C10.9235 58.8455 10.7034 58.4524 10.5538 58.0525C10.4055 57.6563 10.3596 57.3332 10.4159 57.0504L10.4173 57.0433L10.4187 57.0361C10.4807 56.691 10.7288 56.2889 11.1065 55.8543L11.1079 55.8526L11.1093 55.8509C14.8351 51.5156 19.125 47.5526 23.352 43.2146L23.3655 43.2008L23.3782 43.1865C23.5902 42.9471 23.7397 42.6705 23.7924 42.3623C23.8449 42.0543 23.7909 41.7736 23.6917 41.5392C23.5089 41.1069 23.154 40.7865 22.8907 40.5833C22.4903 40.2613 21.9742 39.8585 21.4639 39.4605C20.9495 39.0593 20.4409 38.663 20.0486 38.3488L20.035 38.3379L20.0208 38.3276C19.6712 38.073 19.5648 37.8973 19.5366 37.7872C19.5157 37.7059 19.5001 37.5139 19.7638 37.1063L19.7727 37.0926L19.781 37.0785Z" fill="#00BFFF"/>
</g>
<g filter="url(#filter2_g_626_531)">
<path d="M47.6818 13.1927C48.3146 12.5736 49.3812 11.8352 50.4857 11.422C51.6126 11.0005 52.5461 10.996 53.1569 11.4417C53.4927 11.7244 53.6647 12.0484 54.0294 12.657C54.2996 13.1198 54.633 13.6968 54.962 14.2624L54.9629 14.2639L54.9636 14.2653C55.2905 14.8217 55.6153 15.4076 55.8587 15.7699C56.0346 16.032 56.2723 16.3255 56.6434 16.4837C57.0198 16.6441 57.3945 16.6069 57.7042 16.5435C58.0917 16.4658 58.6537 16.301 59.2312 16.1468L59.2344 16.1459L59.2377 16.145C60.4992 15.7964 61.9862 15.4026 63.1967 15.0594C65.494 14.5104 66.5638 12.5044 67.4631 10.9619C68.134 9.8909 68.4681 9.3013 69.1372 9.011C69.8047 8.81458 70.7639 8.98074 71.7186 9.48847C72.6776 9.99848 73.4457 10.7564 73.7564 11.4806C73.9326 11.9146 73.8831 12.241 73.716 12.6368C73.622 12.8593 73.5011 13.0787 73.35 13.3614C73.2065 13.63 73.0423 13.9445 72.9116 14.2943L72.8999 14.3257L72.8909 14.358C72.7886 14.7263 72.7811 15.1176 72.9564 15.4804C73.1278 15.8353 73.4178 16.0453 73.671 16.1717C73.9202 16.2961 74.1922 16.3687 74.4197 16.4195C74.628 16.466 74.9116 16.516 75.0731 16.549L75.0883 16.5521L75.1036 16.5546C77.4095 16.9297 79.4665 17.5547 80.9401 19.0274L80.9493 19.0366L80.9588 19.0455C85.2026 23.0099 85.9585 28.5983 84.9381 34.4103L84.9296 34.4517C84.9251 34.4715 84.9193 34.4933 84.9127 34.5167C83.3358 31.3096 81.2411 28.0665 78.6827 25.6485C76.0944 23.2021 72.9706 21.5471 69.401 21.7323C65.7827 21.8756 62.0972 23.9763 60.2391 27.0053C57.5656 31.1731 57.434 36.595 58.0034 41.1142L58.0048 41.1258L58.0066 41.1372C58.2197 42.4965 58.1218 43.7228 57.6779 44.751C57.2396 45.7658 56.4386 46.6484 55.1278 47.2957C53.4718 48.1044 51.8475 48.3393 50.4341 48.0531C49.0307 47.769 47.7823 46.9618 46.8643 45.5823L46.862 45.5788L46.8597 45.5753L46.7791 45.4552C45.1058 42.9184 44.5503 39.4915 44.7276 36.3229L44.7282 36.3106C44.744 35.9157 44.7969 35.5342 44.851 35.1205C44.9029 34.7235 44.9577 34.2848 44.9494 33.853L44.9494 33.8524L44.9494 33.8518C44.9404 33.4142 44.7427 33.073 44.4762 32.8378C44.2379 32.6275 43.9568 32.5109 43.7411 32.4396C42.089 31.8772 37.6153 30.3698 34.9955 29.4839C34.3293 29.2583 33.8547 29.1025 33.3014 28.9072C33.0584 28.8176 32.9102 28.7411 32.7955 28.6524C32.6881 28.5694 32.577 28.4498 32.4523 28.2333C31.9055 27.1792 32.2705 25.6925 33.0869 24.416C33.4532 23.8703 33.977 23.4749 34.4885 23.3975C34.7763 23.3603 35.0088 23.4187 35.5742 23.5589L35.5772 23.5598L35.5803 23.5605C38.5613 24.2742 42.8507 25.484 45.3234 25.9761L45.4015 25.9916L45.4811 25.9908C45.9944 25.986 46.384 25.8227 46.7248 25.5692C47.0028 25.3624 47.2996 25.0459 47.5458 24.81L47.5553 24.8009L47.5645 24.7915C47.9168 24.4303 48.3108 24.0158 48.6699 23.5858C49.4667 22.6696 49.9291 21.8264 50.0791 20.9952C50.233 20.1425 50.0409 19.4018 49.7208 18.74C49.4157 18.1092 48.9609 17.4904 48.567 16.9186C48.1558 16.3217 47.7667 15.7188 47.481 15.0225L47.4784 15.0164L47.4758 15.0102C47.1615 14.2805 47.2138 13.6375 47.6737 13.2006L47.6778 13.1967L47.6818 13.1927Z" fill="#00BFFF"/>
</g>
</g>
<defs>
<filter id="filter0_g_626_531" x="-4.34047" y="-4.34029" width="118.544" height="118.334" filterUnits="userSpaceOnUse" color-interpolation-filters="sRGB">
<feFlood flood-opacity="0" result="BackgroundImageFix"/>
<feBlend mode="normal" in="SourceGraphic" in2="BackgroundImageFix" result="shape"/>
<feTurbulence type="fractalNoise" baseFrequency="0.018814047798514366 0.014821900986135006" numOctaves="3" seed="9234" />
<feDisplacementMap in="shape" scale="8.6809492111206055" xChannelSelector="R" yChannelSelector="G" result="displacedImage" width="100%" height="100%" />
<feMerge result="effect1_texture_626_531">
<feMergeNode in="displacedImage"/>
</feMerge>
</filter>
<filter id="filter1_g_626_531" x="6.43285" y="22.3969" width="83.9932" height="71.0533" filterUnits="userSpaceOnUse" color-interpolation-filters="sRGB">
<feFlood flood-opacity="0" result="BackgroundImageFix"/>
<feBlend mode="normal" in="SourceGraphic" in2="BackgroundImageFix" result="shape"/>
<feTurbulence type="fractalNoise" baseFrequency="0.021112868562340736 0.015199309214949608" numOctaves="3" seed="9234" />
<feDisplacementMap in="shape" scale="7.9194636344909668" xChannelSelector="R" yChannelSelector="G" result="displacedImage" width="100%" height="100%" />
<feMerge result="effect1_texture_626_531">
<feMergeNode in="displacedImage"/>
</feMerge>
</filter>
<filter id="filter2_g_626_531" x="28.2327" y="4.97111" width="61.0708" height="47.1587" filterUnits="userSpaceOnUse" color-interpolation-filters="sRGB">
<feFlood flood-opacity="0" result="BackgroundImageFix"/>
<feBlend mode="normal" in="SourceGraphic" in2="BackgroundImageFix" result="shape"/>
<feTurbulence type="fractalNoise" baseFrequency="0.021112868562340736 0.015199309214949608" numOctaves="3" seed="9234" />
<feDisplacementMap in="shape" scale="7.9194636344909668" xChannelSelector="R" yChannelSelector="G" result="displacedImage" width="100%" height="100%" />
<feMerge result="effect1_texture_626_531">
<feMergeNode in="displacedImage"/>
</feMerge>
</filter>
</defs>
</svg>
