<?xml version="1.0" encoding="UTF-8"?>
<svg id="Calque_2" data-name="Calque 2" xmlns="http://www.w3.org/2000/svg" viewBox="0 0 164.46 162.97">
  <g id="Calque_1-2" data-name="Calque 1">
    <path d="M150.77,99.39l3.18-3.93,2.25-2.85,8.26,1.37c-.28-.11.03-.41-.05-.47l-1.93-2.24c-.68-.79-1.3-1.53-2-2.33l-2.57-2.91-2.8-3.32-3.49-4.14c-.7-.82-1.27-1.72-2.18-2.39-.09-.27-.43-.57-.64-.81l-5.35-6.3,5.33-7.79,1.68-2.31c.74-1.02,2.31-3.3,2.44-3.59.46-1.01,1.22-1.81,1.78-2.64l1.96-2.93c1.24-1.84,2.29-3.81,4.01-5.38l-1.29-1.12-1.98,1.68c-.13.11-.65.15-.74.3.07.54-.68.8-.9,1.05-1.18,1.36-2.58,2.28-3.85,3.4l-4.34,3.8c-.92.81-1.78,1.49-2.76,2.22-.74.56-1.52,2.16-2.61,1.65-.09-.05-.32.19-.27.28.06.08.28.42.2.49l-2.58,2.26c-.38.33-.7.31-.96.85-.17.36-.68.66-1.06.97l-3.66-4.26c-.39-.45-.57-.92-1.12-1.26-.44-.27-.67-.85-.8-1.22-.69-.31-1.03-1.08-1.52-1.65-.4-.48-1.15-.71-1.01-1.63l-3.45-.64-3.65-.56.72-.28c-.49-.39-.99.27-1.28.22l-3.06-.55c.41-.2.19-.57.26-.78l2.36-6.49,1.18-3.34,2.5-6.85c.28-.76.48-1.35.87-2.04.21-.39-.09-1.35.77-1.59-.11-.25-.18-.46-.1-.68l1.42-3.79,1.96-5.56c.23.06.49.07.46,0l-.21-.55,1.13-3.27c.17-.48.3-.72.84-.91l-1.8-.96c-.53,1.17-1.34,2.05-1.97,3.09l-.75,1.24-1.95,3.05-1.97,2.94-3.6,5.57c-.36.55-.47.77-.84,1.38l-1.79,2.84c-.35.56-.73.82-.97,1.3l-.81,1.56-5.49,8.43c-.77,1.18-1.38,2.34-2.4,3.69l-5.36-.81-11.76-1.82.29-7.71.18-5.63.25-7,.41-11.01.22-6.26c.08-2.48-.05-4.9.4-7.4.05-.27.22-.77-.22-.96-.48-.21-1.22-.04-1.9-.06l-7.33,28.63c-.23-.07-.44-.09-.48,0-.03.08.09.36.3.42l-2.61,10.74c-.16.16-.36.13-.54.09.35.56.29.93.15,1.45l-.76,2.91c-.94.41-1.9.09-2.76.23-.95.15-1.79.2-2.74.28l-11.89,1.01c-1.04-1.57-1.65-3.24-2.39-4.93l-1.12-2.54c-.43-.98-.89-1.75-1.21-2.83-.16-.54-.71-1.23-1.01-1.92l-1.18-2.74-.95-2.05-.86-1.98c-.31-.7-1.02-1.53-1.02-2.34,0-.61-.28-.61-.5-1.03-.64-1.19-1.31-2.47-1.66-3.75-.13-.47-.23-.49-.41-.88l-2.49-5.39-2.68-5.9-1.71.96,1.45,17.68,1.74,20.83c-1.39.43-2.53.24-3.77.39-.57.07-1.2.45-1.54-.4-.07.29-.25.5-.44.5h-.95c.32.07.54.16.65.5.18.51-.84.74-1.69,1.84l-1.97,2.56-1.81,2.12c-.35.4-.76.92-1.11,1.17-.55.4-.54.67-.92,1.11l-3.1,3.61c-.34.4-.51.7-.92,1.09l-1.28,1.24c-.24.23-.27,1.01-.87,1.05-.43.03-.49-.74-.69-.92-1.08-.98-1.64-1.08-1.53-2.15.01-.1-.38-.03-.59-.07l-5.3-5.99-1.87-2.02c-.37-.4-.68-.83-.76-1.41-.98-.11-1.24-1.11-1.39-1.81-1.17-.35-1.84-1.32-2.51-2.3-.17-.25-.6-.71-.81-.94-.49-.53-1.07-1-1.48-1.6-.62-.9-1.91-1.52-2.24-2.71l-1.74,1.53.99,3.02c.46,1.41,1.29,2.76,1.49,4.24.07.5-.12.61.36,1.02.6.5.58,1.64.91,2.31.44.9.64,1.68.94,2.62.33,1.08,1.09,2.16,1.14,3.32.02.49.2.57.42.9l5.14,14.13-2.13,2.37-5.64,6.71-1.15,1.14c-.04-.19-.15-.49-.36-.32-.06.04-.14.16-.12.24.01.08.14.21.2.28,0,.03.01.04.01.07l-.1.1c-.59.59-1.3,2.42-2.59,2.46.16.24.22.61.04.73l-.59.39c-.42.89-1.03,1.58-1.94,1.92-.09.94-.67,1.56-1.49,1.82-.41.22-.67.67-.44,1.05l9.82-4.11.79,1.53c.99,1.13,1.44,2.25,2.17,3.4l2.47,3.89,3.94,6.13,1.6,1.76c0,.15-.06.69.03.68l.66-.09,2.46,2.61c.53.57.65.58,1.15,1.06l1.15,1.09,3.86,3.63c.12.11-.07.82.09.87.15.06.58-.14.74-.01,1.01.8,1.7,2.07,2.91,2.5l3.58,1.27,2.82.9c-.03.19-.06.4-.02.5.07-.2,2.73-.04,4.25,1.07.52.38.67.15,1.13.31l9.48,3.2,11.79,3.91c.34.11.78.13.85.47l.12.6c.11-.41.36-.61.56-.56.25.06.41.24.39.66l-.78,23.84-.09,1.84-.14,5.96,1.64.15c.9.08.68-.84.87-1.41l9.44-27.59,21.97-4.15,2.86,4.92c.41.58.78,1.1.47,1.93.32-.19.56-.14.84-.02.27.12.18.53.26.75.87.62,1.42,2.04,2.01,2.97l4.41,6.94,3.21,5.34,1.27,2.06c.33.54,1.07,1.02.97,2,.81-.19,1.53-.56,2.02-1.25l-2.18-15.1-1.81-13.15,3.44-.66,6.88-1.34c1.57-.3,3.04-.74,4.66-.45.26-1.18,1.05-1.81,1.78-2.66.8-.92.94-2.25,2.5-1.66-.55-.88-.25-1.46.33-2.05.19-.19.32-.73.73-.45.15.1.19.48.23.67.13.76,1.02.17,1.36.24,1.53.4,3.04,1.44,4.54,2.19l3.22,1.61c1.56.79,3.22,1.29,4.74,2.46l2.31,1.03c.69.61,1.62.48,2.24-.16.47.36.61-.35.03-.23l-4.04-7.22-.84-1.58c-.32-.59-.28-.84-.8-1.3-.65-.56-.86-1.62-1.29-2.35l-1.36-2.32-.96-1.53-1.16-2.03c.9-1.84,2.36-3.22,3.61-4.83l2.5-3.2ZM122.24,85.7c-.02.52-.47.57-.66.84l-3.74,5.55-.45.65-4.48,6.38-2.07,3.13-.67,1.08c-.33.54-.75.91-1.11,1.45l-2.02,3.01-1.65,2.26-37.35,2.31-4.64-1.97c-.5-.21-.83-.38-1.56.07-.06-.28.13-.4.51-.45l-13.71-5.53-1.66-3.86-4.5-10.78c-.22-.54-.5-.77-.81-1.23l-.42-1.8,4.99-7.01c-.33-.16-.58-.31-.46-.7l.54.6,3.46-4.95,2.64-3.66,1.61-2.32c.2-.28.52-.65.54-.97.81-.46.9-1.5,2.06-2.47l12.59-1.65,1.44-.25,7.15-.88c.12-.02.54.06.65-.06.1-.11.12-.21.11-.56.56.57.84.43,1.36.36l16.16-2.22c.68,1.21,2.01,1.93,3.08,2.93.66.62,1.21,1.49,2.02,1.86.29.13.53.8.88.86.39.07.42.54.6.7l4.1,3.72.91.82c1.04.94,1.95,1.99,3.14,2.84,1.09,1.22,2.23,2.47,3.69,3.2.45,1.15,1.45,1.68,2.27,2.41.76.71,1.46,1.67,2.36,2.18.63.36.65.53,1.16,1.05l1.97,2.03c.37-.11.57-.38.97-.07-.52.3-.97.65-.99,1.12Z"/>
    <circle cx="82.23" cy="86.22" r="15.5"/>
  </g>
</svg>